<?xml version="1.0" encoding="utf-8"?>
<!-- Generator: Adobe Illustrator 19.0.0, SVG Export Plug-In . SVG Version: 6.00 Build 0)  -->
<svg version="1.1" id="Слой_1" xmlns="http://www.w3.org/2000/svg" xmlns:xlink="http://www.w3.org/1999/xlink" x="0px" y="0px"
	 viewBox="0 0 600 300" style="enable-background:new 0 0 600 300;" xml:space="preserve">
<style type="text/css">
	.st0{fill:none;stroke:#000000;stroke-width:2;stroke-linecap:round;stroke-linejoin:round;stroke-miterlimit:10;}
</style>
<g>
	<path class="st0" d="M532,128.2c-11.2,1.7-22.3,3.3-33.5,5c-11,1.7-22,3.5-33,5c-6.8,0.9-13.7,1.3-20.5,2.1c-7.7,0.9-15.3,2-23,3
		c-3.7,0.4-7.3,0.7-11,1c-8.8,0.7-17.7,1.2-26.5,2c-13.7,1.2-27.3,2.7-41,4c-5,0.5-10,0.8-15,1c-8,0.4-16,0.5-24,1
		c-14.3,0.9-28.7,2-43,2.9c-7.8,0.5-15.7,0.8-23.5,1c-15.5,0.4-31,0.8-46.5,1c-45.2,0.7-90.3,1.3-135.5,2"/>
</g>
</svg>
