<?xml version="1.0" encoding="utf-8"?>
<!-- Generator: Adobe Illustrator 19.0.0, SVG Export Plug-In . SVG Version: 6.00 Build 0)  -->
<svg version="1.1" id="Режим_изоляции"
	 xmlns="http://www.w3.org/2000/svg" xmlns:xlink="http://www.w3.org/1999/xlink" x="0px" y="0px" viewBox="-49 141 512 512"
	 style="enable-background:new -49 141 512 512;" xml:space="preserve">
<style type="text/css">
	.st0{fill:#BCE2FF;}
</style>
<g>
	<path class="st0" d="M347.7,398.1c-10.7,0-21.1,1.5-31,4.3l-30.8-37.7c22.4-21,36.4-50.9,36.4-84c0-63.6-51.7-115.3-115.3-115.3
		S91.7,217,91.7,280.6c0,33.1,14,62.9,36.4,84l-30.8,37.7c-9.9-2.8-20.3-4.3-31-4.3C2.7,398.1-49,449.8-49,513.4
		C-49,577,2.7,628.7,66.3,628.7c59.4,0,108.4-45.2,114.6-102.9H233c6.2,57.8,55.2,102.9,114.6,102.9c63.6,0,115.3-51.7,115.3-115.3
		C463,449.8,411.3,398.1,347.7,398.1z M113.7,280.6c0-51.5,41.9-93.3,93.3-93.3s93.3,41.9,93.3,93.3c0,51.5-41.9,93.3-93.3,93.3
		S113.7,332.1,113.7,280.6z M143.2,376.6c18.3,12.2,40.2,19.3,63.8,19.3s45.5-7.1,63.8-19.3l26.8,32.9c-36.6,17.7-62.5,54.2-65,96.9
		h-51.2c-2.5-42.7-28.4-79.2-65-96.9L143.2,376.6z M66.3,606.7c-51.5,0-93.3-41.9-93.3-93.3c0-51.5,41.9-93.3,93.3-93.3
		c51.5,0,93.3,41.9,93.3,93.3C159.7,564.8,117.8,606.7,66.3,606.7z M347.7,606.7c-51.5,0-93.3-41.9-93.3-93.3
		c0-51.5,41.9-93.3,93.3-93.3c51.5,0,93.3,41.9,93.3,93.3C441,564.8,399.1,606.7,347.7,606.7z"/>
</g>
</svg>
