<?xml version="1.0" encoding="utf-8"?>
<!-- Generator: Adobe Illustrator 19.0.0, SVG Export Plug-In . SVG Version: 6.00 Build 0)  -->
<svg version="1.1" id="Capa_1" xmlns="http://www.w3.org/2000/svg" xmlns:xlink="http://www.w3.org/1999/xlink" x="0px" y="0px"
	 viewBox="-49 141 512 512" style="enable-background:new -49 141 512 512;" xml:space="preserve">
<style type="text/css">
	.st0{fill:#BCE2FF;}
</style>
<g>
	<g>
		<path class="st0" d="M440,144.9H35.3c-12.7,0-23,10.3-23,23v38.7H-26c-12.7,0-23,10.3-23,23v307.9c0,12.7,10.3,23,23,23h97.5
			L33,626c-3.7,6.3-4.1,11.9-1.4,16.7c2.3,4,6.5,6.4,11.3,6.4c3.1,0,6.3-1,9.8-3l152.3-85.7h173.6c12.7,0,23-10.3,23-23v-38.7H440
			c12.7,0,23-10.3,23-23V167.9C463,155.2,452.7,144.9,440,144.9z M378.7,537.4H202.1c-1.9,0-3.9,0.5-5.6,1.5L68.6,610.8l32.9-56.1
			c2.1-3.6,2.1-8,0.1-11.5c-2-3.6-5.9-5.8-10-5.8H-26l0-307.9h404.7L378.7,537.4L378.7,537.4z M440,475.8h-38.3V229.6
			c0-12.7-10.3-23-23-23H35.3v-38.7H440V475.8z"/>
		<path class="st0" d="M63.3,410.5c19.2,0,34.8-15.6,34.8-34.8c0-19.2-15.6-34.8-34.8-34.8c-19.2,0-34.8,15.6-34.8,34.8
			C28.5,394.9,44.1,410.5,63.3,410.5z M63.3,356.9c10.4,0,18.8,8.4,18.8,18.8c0,10.4-8.4,18.8-18.8,18.8s-18.8-8.4-18.8-18.8
			C44.5,365.3,52.9,356.9,63.3,356.9z"/>
		<path class="st0" d="M174.4,410.5c19.2,0,34.8-15.6,34.8-34.8c0-19.2-15.6-34.8-34.8-34.8c-19.2,0-34.8,15.6-34.8,34.8
			C139.6,394.9,155.2,410.5,174.4,410.5z M174.4,356.9c10.4,0,18.8,8.4,18.8,18.8c0,10.4-8.4,18.8-18.8,18.8s-18.8-8.4-18.8-18.8
			C155.6,365.3,164,356.9,174.4,356.9z"/>
		<path class="st0" d="M285.5,410.5c19.2,0,34.8-15.6,34.8-34.8c0-19.2-15.6-34.8-34.8-34.8c-19.2,0-34.8,15.6-34.8,34.8
			C250.7,394.9,266.3,410.5,285.5,410.5z M285.5,356.9c10.4,0,18.8,8.4,18.8,18.8c0,10.4-8.4,18.8-18.8,18.8s-18.8-8.4-18.8-18.8
			C266.7,365.3,275.1,356.9,285.5,356.9z"/>
	</g>
</g>
</svg>
