<?xml version="1.0" encoding="utf-8"?>
<!-- Generator: Adobe Illustrator 19.0.0, SVG Export Plug-In . SVG Version: 6.00 Build 0)  -->
<svg version="1.1" id="Capa_1" xmlns="http://www.w3.org/2000/svg" xmlns:xlink="http://www.w3.org/1999/xlink" x="0px" y="0px"
	 viewBox="-49 141 512 512" style="enable-background:new -49 141 512 512;" xml:space="preserve">
<style type="text/css">
	.st0{fill:#BCE2FF;}
</style>
<g>
	<path class="st0" d="M141.9,467.9l-3.6,34.4c-0.3,2.8,0.6,5.5,2.5,7.6c1.9,2.1,4.5,3.3,7.3,3.3h104.1c2.8,0,5.5-1.2,7.3-3.3
		c1.9-2.1,2.8-4.8,2.5-7.6l-3.6-34.4H388c20.2,0,36.6-16.4,36.6-36.6V177.6c0-20.2-16.4-36.6-36.6-36.6H4.3
		c-20.2,0-36.6,16.4-36.6,36.6v253.7c0,20.2,16.4,36.6,36.6,36.6L141.9,467.9L141.9,467.9z M241.2,493.5H159l2.7-25.6h76.8
		L241.2,493.5z M4.3,160.7H388c9.3,0,16.9,7.6,16.9,16.9v223.3H-12.6V177.6C-12.6,168.3-5,160.7,4.3,160.7z M-12.6,431.3v-10.7
		h417.5v10.7c0,9.3-7.6,16.9-16.9,16.9H4.3C-5,448.2-12.6,440.6-12.6,431.3z"/>
	<path class="st0" d="M387.7,579.3c1.8-2.9,1.9-6.6,0.3-9.7l-19.4-37.4c-1.7-3.3-5.1-5.3-8.7-5.3H32.5c-3.7,0-7,2-8.7,5.3L4.3,569.7
		c-1.6,3.1-1.5,6.7,0.3,9.7s5,4.7,8.4,4.7h366.3C382.7,584.1,385.9,582.3,387.7,579.3z M29.2,564.4l9.2-17.7h315.4l9.2,17.7H29.2z"
		/>
	<path class="st0" d="M404.9,601.8h-15.8c-22.8,0-41.4,18.6-41.4,41.4c0,5.4,4.4,9.8,9.8,9.8h78.8c5.4,0,9.8-4.4,9.8-9.8
		C446.3,620.4,427.7,601.8,404.9,601.8z M369.9,633.3c3.6-7,10.9-11.8,19.3-11.8h15.8c8.4,0,15.7,4.8,19.3,11.8H369.9z"/>
</g>
</svg>
