<?xml version="1.0" encoding="utf-8"?>
<!-- Generator: Adobe Illustrator 19.0.0, SVG Export Plug-In . SVG Version: 6.00 Build 0)  -->
<svg version="1.1" id="Capa_1" xmlns="http://www.w3.org/2000/svg" xmlns:xlink="http://www.w3.org/1999/xlink" x="0px" y="0px"
	 viewBox="-49 141 512 512" style="enable-background:new -49 141 512 512;" xml:space="preserve">
<style type="text/css">
	.st0{fill:#BCE2FF;}
</style>
<g>
	<g id="_x35_8_24_">
		<g>
			<path class="st0" d="M173.2,429.5c-0.8,2-1.8,3.7-3,5.2c-1.2,1.5-2.7,2.6-4.5,3.4c-1.8,0.8-3.9,1.2-6.5,1.2
				c-3.6,0-6.5-0.8-8.9-2.3c-2.4-1.6-4.2-3.6-5.7-6.1c-1.4-2.5-2.4-5.4-3.1-8.6c-0.6-3.2-1-6.4-1-9.7c0-3.3,0.3-6.5,1-9.7
				c0.6-3.2,1.7-6.1,3.1-8.6c1.4-2.6,3.3-4.6,5.7-6.1c2.4-1.6,5.3-2.3,8.9-2.3c3.1,0,5.6,0.6,7.6,1.7c2,1.2,3.5,2.6,4.7,4.1
				c1.2,1.6,2,3.1,2.5,4.7c0.5,1.6,0.8,2.8,1,3.7h29.2c-1.3-12.3-5.6-21.7-12.9-28.4c-7.3-6.7-17.7-10.1-31.1-10.2
				c-7.5,0-14.4,1.2-20.4,3.7c-6,2.4-11.2,5.9-15.5,10.4c-4.3,4.5-7.6,9.8-10,16.1c-2.3,6.3-3.5,13.2-3.5,20.9
				c0,7.2,1.1,13.9,3.3,20.1c2.2,6.2,5.4,11.6,9.6,16.2c4.2,4.6,9.4,8.1,15.5,10.8c6.1,2.6,13.1,4,21,4c7.1,0,13.4-1.2,19-3.5
				c5.5-2.4,10.2-5.5,14-9.3c3.8-3.9,6.6-8.2,8.6-13c2-4.8,2.9-9.7,2.9-14.6h-29.5C174.6,425.3,174,427.5,173.2,429.5z"/>
			<polygon class="st0" points="253.5,422.9 253.2,422.9 237.3,363.9 207,363.9 236,461.3 269.6,461.3 300,363.9 269.2,363.9 			"/>
			<path class="st0" d="M330.9,141H9.9v512h394.3V212L330.9,141z M370.1,618.9H43.9V175.1h269.4v54.1H370L370.1,618.9L370.1,618.9z"
				/>
		</g>
	</g>
</g>
</svg>
