<?xml version="1.0" encoding="utf-8"?>
<!-- Generator: Adobe Illustrator 19.0.0, SVG Export Plug-In . SVG Version: 6.00 Build 0)  -->
<svg version="1.1" id="Слой_1" xmlns="http://www.w3.org/2000/svg" xmlns:xlink="http://www.w3.org/1999/xlink" x="0px" y="0px"
	 viewBox="-49 141 512 512" style="enable-background:new -49 141 512 512;" xml:space="preserve">
<style type="text/css">
	.st0{fill:#BCE2FF;}
</style>
<path class="st0" d="M463,368.2c0-48-44.8-67.2-70.4-67.2h-70.4c12.8-32,22.4-70.4,16-99.2c-16-57.6-64-60.8-80-60.8H255
	c-12.8,0-19.2,6.4-25.6,16l-32,89.6L111,333H-49v288h160v-32c6.4,0,22.4,9.6,38.4,19.2c38.4,19.2,92.8,48,144,48
	c76.8,0,102.4-9.6,121.6-41.6c9.6-19.2,9.6-35.2,9.6-44.8c6.4-6.4,16-16,19.2-32s3.2-25.6,0-35.2c6.4-9.6,12.8-22.4,16-41.6
	c0-16-3.2-28.8-6.4-38.4C456.6,409.8,463,393.8,463,368.2L463,368.2z M31,573c-19.2,0-32-12.8-32-32s12.8-32,32-32s32,12.8,32,32
	S50.2,573,31,573z M421.4,432.2c0,0,6.4,6.4,6.4,22.4c0,19.2-12.8,28.8-12.8,28.8l-9.6,9.6l6.4,9.6c0,0,6.4,9.6,0,22.4
	c-3.2,12.8-16,22.4-16,22.4l-9.6,9.6l6.4,12.8c0,0,6.4,12.8-3.2,28.8c-6.4,12.8-12.8,22.4-92.8,22.4c-44.8,0-96-25.6-131.2-44.8
	C139.8,563.4,123.8,557,111,557l0,0V365h3.2c6.4,0,12.8-3.2,19.2-6.4L223,269c3.2-3.2,3.2-6.4,6.4-9.6l32-86.4
	c16,0,38.4,6.4,44.8,35.2c3.2,19.2-3.2,51.2-19.2,89.6c-3.2,9.6-3.2,16,3.2,25.6c3.2,6.4,12.8,9.6,22.4,9.6h80
	c3.2,0,38.4,6.4,38.4,35.2c0,25.6-9.6,38.4-9.6,38.4l-9.6,12.8L421.4,432.2L421.4,432.2z"/>
</svg>
