<?xml version="1.0" encoding="utf-8"?>
<!-- Generator: Adobe Illustrator 19.0.0, SVG Export Plug-In . SVG Version: 6.00 Build 0)  -->
<svg version="1.1" id="Artwork" xmlns="http://www.w3.org/2000/svg" xmlns:xlink="http://www.w3.org/1999/xlink" x="0px" y="0px"
	 viewBox="-49 141 512 512" style="enable-background:new -49 141 512 512;" xml:space="preserve">
<style type="text/css">
	.st0{fill:#BCE2FF;}
</style>
<g>
	<circle class="st0" cx="50.3" cy="414.5" r="15.3"/>
	<path class="st0" d="M113,429.8L113,429.8c8.5,0,15.3-6.9,15.3-15.3c0-8.5-6.9-15.3-15.3-15.3l0,0c-8.5,0-15.3,6.9-15.3,15.3
		C97.7,423,104.5,429.8,113,429.8z"/>
	<circle class="st0" cx="175.6" cy="414.5" r="15.3"/>
	<circle class="st0" cx="238.3" cy="414.5" r="15.3"/>
	<circle class="st0" cx="301" cy="414.5" r="15.3"/>
	<circle class="st0" cx="363.7" cy="414.5" r="15.3"/>
	<circle class="st0" cx="81.7" cy="479.5" r="15.3"/>
	<circle class="st0" cx="144.3" cy="479.5" r="15.3"/>
	<circle class="st0" cx="207" cy="479.5" r="15.3"/>
	<circle class="st0" cx="269.6" cy="479.5" r="15.3"/>
	<circle class="st0" cx="332.3" cy="479.5" r="15.3"/>
	<path class="st0" d="M85.5,544.4c0,6.8,5.5,12.3,12.3,12.3h218.6c6.8,0,12.3-5.5,12.3-12.3c0-6.8-5.5-12.3-12.3-12.3H97.7
		C90.9,532.2,85.5,537.6,85.5,544.4z"/>
	<path class="st0" d="M247.4,263.9h70.9c27.3,0,49.6-22.2,49.6-49.6s-22.2-49.6-49.6-49.6l-240.5,0.1c-6.8,0-12.2,5.5-12.2,12.3
		s5.5,12.2,12.3,12.2l0,0l240.5-0.1c13.8,0,25.1,11.2,25.1,25.1c0,13.9-11.2,25.1-25.1,25.1h-70.9c-29.6,0-53.7,24.1-53.7,53.7v36.7
		H-9.7c-15.6,0-28.3,12-28.3,26.7v246c0,14.7,12.7,26.7,28.3,26.7h433.4c15.6,0,28.3-12,28.3-26.7v-246c0-14.7-12.7-26.7-28.3-26.7
		H218.3v-36.7C218.3,277,231.3,263.9,247.4,263.9z M427.5,356.5v246c0,0.9-1.5,2.2-3.8,2.2H-9.7c-2.3,0-3.8-1.3-3.8-2.2v-246
		c0-0.9,1.5-2.2,3.8-2.2h433.4C426.1,354.2,427.5,355.7,427.5,356.5z"/>
</g>
</svg>
