<?xml version="1.0" encoding="utf-8"?>
<!-- Generator: Adobe Illustrator 19.0.0, SVG Export Plug-In . SVG Version: 6.00 Build 0)  -->
<svg version="1.1" id="Capa_1" xmlns="http://www.w3.org/2000/svg" xmlns:xlink="http://www.w3.org/1999/xlink" x="0px" y="0px"
	 viewBox="-49 141 512 512" style="enable-background:new -49 141 512 512;" xml:space="preserve">
<style type="text/css">
	.st0{fill:#BCE2FF;}
</style>
<g>
	<g id="_x35__24_">
		<g>
			<path class="st0" d="M447,557h-48V285l-32,32v240H69l349.5-364.8l-22.6-22.6L47,533.7V237h224.3l29.5-32H47v-48
				c0-8.8-7.2-16-16-16s-16,7.2-16,16v48h-48c-8.8,0-16,7.2-16,16s7.2,16,16,16h48v320v32h352v48c0,8.8,7.2,16,16,16s16-7.2,16-16
				v-48h48c8.8,0,16-7.2,16-16S455.8,557,447,557z"/>
		</g>
	</g>
</g>
</svg>
