<?xml version="1.0" encoding="utf-8"?>
<!-- Generator: Adobe Illustrator 19.0.0, SVG Export Plug-In . SVG Version: 6.00 Build 0)  -->
<svg version="1.1" id="Layer_1" xmlns="http://www.w3.org/2000/svg" xmlns:xlink="http://www.w3.org/1999/xlink" x="0px" y="0px"
	 viewBox="-60 151.5 490.5 490.5" style="enable-background:new -60 151.5 490.5 490.5;" xml:space="preserve">
<style type="text/css">
	.st0{fill:#BCE2FF;stroke:#BCE2FF;stroke-width:6;stroke-miterlimit:10;}
	.st1{fill:#798090;stroke:#798090;stroke-width:6;stroke-miterlimit:10;}
</style>
<g>
	<g>
		<path class="st0" d="M-40.2,565.7c5.5,0,9.9-4.4,9.9-9.9v-50.3c0-7.7,3.4-15,9.3-19.8C23.8,449,72.3,424.5,81.6,420
			c4.6-2.2,7.4-6.8,7.4-11.8v-70.7c0-3.3-1.7-6.4-4.4-8.2c-6.5-4.3-10.4-11.5-10.4-19.3v-73.5c0-31,25.2-56.2,56.2-56.2h15.8
			c31,0,56.2,25.2,56.2,56.2v73.3c0,7.8-3.9,15-10.4,19.3c-2.8,1.8-4.4,4.9-4.4,8.2V408c0,5.5,4.4,9.9,9.9,9.9s9.9-4.4,9.9-9.9
			v-65.9c9.3-8.1,14.8-19.9,14.8-32.4v-73.2c0-41.9-34.1-76-76-76h-15.9c-41.9,0-76,34.1-76,76v73.3c0,12.5,5.4,24.3,14.8,32.4V404
			c-15.2,7.7-60.5,31.8-102.6,66.4C-44,479-50,491.8-50,505.5v50.3C-50,561.2-45.7,565.7-40.2,565.7z"/>
		<path class="st1" d="M341.6,475.3h69c5.5,0,9.9-4.4,9.9-9.9c0-19.3-7-37.8-19.8-52.2c-15-17-36.5-26.7-59.2-26.7
			c-5.5,0-9.9,4.4-9.9,9.9v69C331.8,470.9,336.1,475.3,341.6,475.3z M351.5,407.1c13.2,2.2,25.4,9,34.4,19.2
			c7.3,8.3,12.1,18.4,14,29.2h-48.4V407.1z"/>
		<path class="st1" d="M302.8,601c54,0,97.9-43.9,97.9-97.9c0-5.5-4.4-9.9-9.9-9.9h-78.1v-78.1c0-5.5-4.4-9.9-9.9-9.9
			c-54,0-97.9,43.9-97.9,97.9S248.8,601,302.8,601z M292.9,425.7v77.4c0,5.5,4.4,9.9,9.9,9.9h77.4c-4.9,38.4-37.7,68.2-77.4,68.2
			c-43,0-78.1-35-78.1-78.1C224.6,463.5,254.5,430.6,292.9,425.7z"/>
	</g>
</g>
</svg>
