<?xml version="1.0" encoding="utf-8"?>
<!-- Generator: Adobe Illustrator 19.0.0, SVG Export Plug-In . SVG Version: 6.00 Build 0)  -->
<svg version="1.1" id="Capa_1" xmlns="http://www.w3.org/2000/svg" xmlns:xlink="http://www.w3.org/1999/xlink" x="0px" y="0px"
	 viewBox="-49 141 512 512" style="enable-background:new -49 141 512 512;" xml:space="preserve">
<style type="text/css">
	.st0{fill:#BCE2FF;stroke:#BCE2FF;stroke-width:5;stroke-miterlimit:10;}
</style>
<g>
	<path class="st0" d="M207.5,645C70.5,645-41,533.5-41,396.5S70.5,148,207.5,148S456,259.5,456,396.5S344.5,645,207.5,645z
		 M207.5,163.1c-128.7,0-233.4,104.7-233.4,233.4S78.8,629.9,207.5,629.9s233.4-104.7,233.4-233.4S336.2,163.1,207.5,163.1z"/>
	<path class="st0" d="M207.5,645c-51.7,0-101.4-15.9-143.8-46.1c-2.3-1.6-3.5-4.4-3.1-7.1s2.2-5.1,4.8-6.1
		c62.4-23.1,72.5-41.9,72.5-77.8c0-9.5-2.1-12.6-6-18.3c-5.1-7.4-12.1-17.6-17-44.3c-0.7-3.8-1.3-4.1-4.8-5.8
		c-9.1-4.4-17.5-10.7-19.7-39.6c0-14,4.8-21.7,8.8-25.7c-0.9-5-2.3-13.5-3.6-22.9c-6.8-41.8-7.1-93,51.7-116.9
		c51.3-20.8,92.2-9.4,105,4.1c9.1,0.3,32.6,2.7,48.9,21.7c25.1,29.2,17.1,95.8,14.4,113.9c4,3.9,8.9,11.6,8.9,25.2
		c-2.2,29.4-10.6,35.8-19.7,40.2c-3.4,1.7-4.1,1.9-4.8,5.8c-4.9,26.6-11.9,36.8-17,44.3c-3.9,5.6-6,8.8-6,18.3
		c0,36,10.1,54.7,72.5,77.8c2.6,1,4.5,3.3,4.8,6.1s-0.8,5.5-3.1,7.1C308.9,629.1,259.2,645,207.5,645z M84.3,594.6
		c37.1,23.2,79.4,35.4,123.2,35.4s86.2-12.2,123.2-35.4c-52.3-21.5-68.8-43.1-68.8-86.7c0-14.2,4.2-20.3,8.6-26.8
		c4.6-6.7,10.3-15,14.6-38.5c2.1-11.4,8.7-14.5,13-16.6c4.7-2.2,9.5-4.6,11.2-27.2c0-11.5-5.2-14.6-5.4-14.8c-2.8-1.6-4.6-5-4-8.1
		c3.7-20,9.9-82.4-10.3-105.9c-13.8-16-35.4-16.4-39.5-16.3c-0.7-0.1-1.4-0.1-2-0.2c-2-0.5-5.3-2.2-6.3-3.9c-4.1-7-39.8-21.1-89-1.2
		c-48.7,19.7-48.8,61.9-42.5,100.6c2.1,14.4,4.4,26.9,4.4,26.9c0.6,3.4-1.1,6.8-4.3,8.2l0,0c0,0-5.1,3.1-5.1,15.2
		c1.7,22,6.5,24.3,11.2,26.6c4.4,2.1,10.9,5.3,13,16.6c4.3,23.5,10,31.8,14.6,38.5c4.5,6.5,8.6,12.6,8.6,26.8
		C153,551.4,136.6,573.1,84.3,594.6z"/>
</g>
</svg>
