<?xml version="1.0" encoding="utf-8"?>
<!-- Generator: Adobe Illustrator 19.0.0, SVG Export Plug-In . SVG Version: 6.00 Build 0)  -->
<svg version="1.1" id="Layer_1" xmlns="http://www.w3.org/2000/svg" xmlns:xlink="http://www.w3.org/1999/xlink" x="0px" y="0px"
	 viewBox="-60 152.4 489.6 489.6" style="enable-background:new -60 152.4 489.6 489.6;" xml:space="preserve">
<style type="text/css">
	.st0{fill:#BCE2FF;}
	.st1{fill:#798090;}
</style>
<g>
	<g>
		<path id="XMLID_2038_" class="st0" d="M184.7,251.6c0.1,0,0.2,0,0.2,0l0,0c40.4-0.4,34.5-54.4,34.5-54.4
			c-1.6-36.1-31.7-35.8-34.7-35.7c-3-0.1-33.1-0.4-34.8,35.6c0,0-5.9,54,34.6,54.4l0,0C184.5,251.6,184.6,251.6,184.7,251.6z"/>
		<path id="XMLID_2039_" class="st0" d="M184.7,318.7l26.1-36c0,0,18.4,7.4,33.4,18.5c3.9,2.9,5.7,4.6,9.2,8.1
			c8.3,8.3,4.8,56.4,0,74c-4.8,17.6-18.9,42.9-18.9,42.9c-2.8,6.4-4.6,13.3-5.3,20.2l-18,176.5c-0.6,5.6-5.3,9.9-10.9,9.9h-15.6
			h-15.6c-5.6,0-10.4-4.3-10.9-9.9l-18-176.5c-0.7-7-2.5-13.8-5.3-20.2c0,0-14.1-25.2-18.9-42.9c-4.8-17.6-8.3-65.7,0-74
			c3.5-3.5,5.3-5.2,9.2-8.1c15-11,33.4-18.5,33.4-18.5L184.7,318.7z"/>
		<path class="st1" d="M-18.3,401.2c4.5,16.4,16.5,38.5,18.3,41.9c2.2,5.1,3.6,10.4,4.1,15.9L21,624.6c1,9.9,9.3,17.4,19.3,17.4
			h29.2c10,0,18.3-7.5,19.3-17.4L105.7,459c0.6-5.6,2-11.1,4.3-16.2c2-4.6-0.1-9.9-4.6-11.9c-4.6-2-9.9,0.1-11.9,4.6
			c-3,6.9-5,14.2-5.7,21.7L70.9,622.8c-0.1,0.6-0.6,1.1-1.2,1.1H40.5c-0.6,0-1.2-0.5-1.2-1.1L22.2,457.1c-0.8-7.5-2.7-14.8-5.7-21.7
			c-0.1-0.3-0.2-0.5-0.4-0.8c-0.1-0.2-12.7-22.9-16.9-38.2c-4.6-17.1-5.9-54.3-2.1-60.9c3-3,4.3-4.2,7.4-6.5
			c7.9-5.8,17-10.5,22.9-13.3l20.2,27.8c1.7,2.3,4.4,3.7,7.3,3.7s5.6-1.4,7.3-3.7l24.5-33.7c2.9-4,2-9.7-2-12.7c-4-2.9-9.7-2-12.7,2
			l-17.2,23.6l-17-23.5c-2.4-3.4-6.9-4.6-10.7-3.1c-0.7,0.3-18.5,7.5-33.3,18.4c-4.2,3.1-6.2,5-9.7,8.5
			C-28.7,335.8-21.6,389-18.3,401.2z"/>
		<path class="st1" d="M54.1,284.3c0.2,0,0.4,0,0.6,0c0.1,0,0.3,0,0.4,0c0.2,0,0.4,0,0.7,0c11.6-0.3,21.4-4.5,28.4-12.4
			c14.9-16.8,12.8-44.8,12.4-48.3c-1.5-30.9-23-41.8-40.9-41.8c-0.3,0-0.6,0-0.8,0c-0.2,0-0.5,0-0.8,0c-17.9,0-39.3,11-40.9,41.8
			c-0.3,3.5-2.5,31.5,12.4,48.3C32.7,279.8,42.5,284.1,54.1,284.3z M31.3,225.2c0-0.2,0-0.4,0-0.6c1-21.6,14.7-24.8,22.8-24.8h0.4
			c0.2,0,0.5,0,0.7,0h0.4c8.1,0,21.8,3.2,22.8,24.8c0,0.2,0,0.4,0,0.5c0.7,6.4,0.5,25.1-8,34.7c-3.7,4.2-8.8,6.3-15.5,6.3
			c-0.1,0-0.1,0-0.2,0l0,0c-6.7-0.1-11.8-2.1-15.5-6.3C30.8,250.3,30.7,231.6,31.3,225.2z"/>
		<path class="st1" d="M264.1,430.8c-4.6,2-6.7,7.4-4.6,11.9c2.3,5.2,3.7,10.6,4.3,16.2l16.9,165.6c1,9.9,9.3,17.4,19.3,17.4h29.2
			c10,0,18.3-7.5,19.3-17.4l16.9-165.6c0.6-5.5,1.9-10.8,4.1-15.9c1.8-3.3,13.9-25.4,18.3-41.9c3.3-12.2,10.5-65.4-2.3-78.2
			c-3.5-3.5-5.5-5.4-9.7-8.5c-14.8-10.9-32.5-18.1-33.3-18.4c-3.9-1.6-8.3-0.3-10.7,3.1l-17.2,23.6l-17.3-23.5
			c-2.9-4.1-8.6-4.9-12.7-2c-4,2.9-4.9,8.6-2,12.7l24.5,33.7c1.7,2.3,4.4,3.7,7.3,3.7s5.6-1.4,7.3-3.7l20.2-27.8
			c5.9,2.8,15,7.5,22.9,13.3c3,2.2,4.3,3.5,7.4,6.5c3.8,6.6,2.5,43.8-2.1,60.9c-4.2,15.3-16.8,38-16.9,38.2s-0.3,0.5-0.4,0.8
			c-3,6.9-5,14.2-5.7,21.7l-16.9,165.6c-0.1,0.6-0.6,1.1-1.2,1.1h-29.2c-0.6,0-1.2-0.5-1.2-1.1l-16.9-165.6
			c-0.8-7.5-2.7-14.8-5.7-21.7C274,430.8,268.7,428.8,264.1,430.8z"/>
		<path class="st1" d="M313.6,284.3c0.2,0,0.4,0,0.7,0c0.1,0,0.3,0,0.4,0c0.2,0,0.4,0,0.6,0c11.6-0.2,21.4-4.5,28.5-12.4
			c14.9-16.8,12.8-44.8,12.4-48.3c-1.5-30.9-22.9-41.8-40.9-41.8c-0.3,0-0.6,0-0.8,0c-0.2,0-0.5,0-0.8,0c-17.9,0-39.3,11-40.9,41.8
			c-0.3,3.5-2.5,31.5,12.4,48.3C292.2,279.8,302,284,313.6,284.3z M290.8,225.2c0-0.2,0-0.4,0-0.6c1-21.6,14.7-24.8,22.8-24.8h0.4
			c0.2,0,0.5,0,0.7,0h0.4c8.1,0,21.8,3.2,22.8,24.8c0,0.2,0,0.4,0,0.5c0.7,6.4,0.5,25.1-8,34.7c-3.7,4.2-8.8,6.2-15.5,6.3l0,0
			c-0.1,0-0.1,0-0.2,0c-6.7-0.1-11.8-2.1-15.5-6.3C290.3,250.3,290.2,231.6,290.8,225.2z"/>
		<path class="st1" d="M109.6,302.9c-13.5,13.5-5.9,69.8-2.3,82.8c4.8,17.5,17.6,41.1,19.5,44.5c2.4,5.5,3.9,11.2,4.5,17.1l18,176.5
			c1,10.3,9.6,18,20,18h31.1c10.3,0,18.9-7.8,20-18l18-176.5c0.6-5.9,2.1-11.7,4.5-17.1c1.9-3.5,14.7-27,19.5-44.5
			c3.5-13,11.2-69.3-2.3-82.8c-3.7-3.7-5.8-5.7-10.2-9c-15.7-11.6-34.6-19.2-35.4-19.6c-3.9-1.6-8.3-0.3-10.7,3.1l-19.1,25.9
			l-18.8-25.9c-2.4-3.4-6.9-4.6-10.7-3.1c-0.8,0.3-19.6,8-35.4,19.6C115.4,297.2,113.2,299.2,109.6,302.9z M122.6,315.5
			c3.3-3.3,4.7-4.6,8-7c8.6-6.4,18.6-11.5,25-14.5l21.8,30c1.7,2.3,4.4,3.7,7.3,3.7c2.9,0,5.6-1.4,7.3-3.7l21.8-30
			c6.3,3,16.3,8.1,25,14.5c3.3,2.4,4.7,3.7,8,7c4.2,6.8,2.9,46.9-2.2,65.4c-4.5,16.4-17.9,40.6-18.1,40.8c-0.1,0.2-0.3,0.5-0.4,0.8
			c-3.2,7.3-5.3,15-6.1,23L202,622c-0.1,1-0.9,1.7-1.9,1.7H169c-1,0-1.8-0.7-1.9-1.7l-18-176.5c-0.8-7.9-2.8-15.7-6.1-23
			c-0.1-0.3-0.2-0.5-0.4-0.8c-0.1-0.2-13.6-24.5-18.1-40.9C119.7,362.4,118.4,322.3,122.6,315.5z"/>
		<path class="st1" d="M183.8,260.6c0.2,0,0.5,0,0.7,0c0.1,0,0.4,0,0.5,0c0.2,0,0.4,0,0.6,0c12.4-0.2,22.4-4.6,29.9-13.1
			c15.8-17.7,13.4-47.5,13.1-51.1c-1.6-32.5-24.1-44-43-44c-0.3,0-0.6,0-0.9,0c-0.2,0-0.5,0-0.9,0c-18.8,0-41.4,11.5-43,44
			c-0.3,3.6-2.7,33.3,13.1,51C161.4,255.9,171.5,260.3,183.8,260.6z M158.9,198.1c0-0.2,0-0.4,0-0.6c1.1-24.4,17.8-27,24.9-27h0.5
			c0.2,0,0.5,0,0.7,0h0.5c7.1,0,23.8,2.6,24.9,27c0,0.2,0,0.4,0,0.5c0.7,6.9,0.6,27.1-8.6,37.4c-4.1,4.6-9.7,6.9-17,6.9
			c-0.1,0-0.2,0-0.3,0c-7.3-0.1-12.9-2.3-17-6.9C158.3,225.2,158.2,205,158.9,198.1z"/>
	</g>
</g>
</svg>
