<?xml version="1.0" encoding="utf-8"?>
<!-- Generator: Adobe Illustrator 19.0.0, SVG Export Plug-In . SVG Version: 6.00 Build 0)  -->
<svg version="1.1" id="Layer_1" xmlns="http://www.w3.org/2000/svg" xmlns:xlink="http://www.w3.org/1999/xlink" x="0px" y="0px"
	 viewBox="-49 141 512 512" style="enable-background:new -49 141 512 512;" xml:space="preserve">
<style type="text/css">
	.st0{fill:#BCE2FF;}
</style>
<g>
	<g>
		<path class="st0" d="M437.5,561.1L331.9,455.5l42.7-15.5c3.6-1.3,5.8-5.1,5.1-8.9l-11.4-64.9l32.9-57.1c1.9-3.4,1.2-7.6-1.8-10.1
			L349,256.7l-11.4-64.9c-0.7-3.8-4-6.6-7.9-6.6h-65.9l-50.5-42.3c-3-2.5-7.3-2.5-10.3,0l-50.5,42.3H86.8c-3.9,0-7.2,2.8-7.9,6.6
			l-11.4,64.9L17,299c-3,2.5-3.7,6.8-1.8,10.1l32.9,57.1l-11.4,64.9c-0.7,3.8,1.5,7.6,5.1,8.9l40.9,14.9L-23.5,561.1
			c-2.2,2.2-2.9,5.5-1.9,8.4c1.1,2.9,3.7,5,6.8,5.2l65.5,5.5l5.5,65.5c0.3,3.1,2.3,5.8,5.2,6.8c0.9,0.3,1.8,0.5,2.7,0.5
			c2.1,0,4.1-0.8,5.6-2.3L207,509.7l140.9,140.9c1.5,1.5,3.6,2.3,5.6,2.3c0.9,0,1.9-0.2,2.7-0.5c2.9-1.1,5-3.7,5.2-6.8l5.5-65.5
			l65.5-5.5c3.1-0.3,5.8-2.3,6.8-5.2C440.4,566.6,439.7,563.3,437.5,561.1z M66.9,627.2l-4.6-55.1c-0.3-3.9-3.4-7-7.3-7.3L0,560.2
			l99.3-99.3l4.5,1.6l32.9,57.1c1.5,2.5,4.1,4,6.9,4c0.9,0,1.8-0.2,2.7-0.5l38.9-14.2L66.9,627.2z M214.7,485.9l-3.8-1.4
			c-1.8-0.6-3.7-0.6-5.5,0l-5.6,2l-52.7,19.2l-31-53.8c-0.9-1.6-2.4-2.9-4.2-3.5l-12-4.4l-46.4-16.9l10.8-61.1
			c0.3-1.9,0-3.8-0.9-5.4l-31-53.8l47.6-39.9c1.4-1.2,2.4-2.9,2.7-4.7l10.8-61.1h62.1c1.9,0,3.7-0.7,5.1-1.9l47.6-39.9l47.6,39.9
			c1.4,1.2,3.3,1.9,5.1,1.9H323l10.8,61.1c0.3,1.8,1.3,3.5,2.7,4.7l47.6,39.9l-31,53.8c-0.9,1.6-1.3,3.5-0.9,5.4l10.8,61.1
			l-48.2,17.5l-10.2,3.7c-1.8,0.6-3.2,1.9-4.2,3.5l-31,53.8L214.7,485.9C214.8,485.9,214.7,485.9,214.7,485.9z M358.9,564.8
			c-3.9,0.3-7,3.4-7.3,7.3l-4.6,55.1L227.3,507.5l42.8,15.6c0.9,0.3,1.8,0.5,2.7,0.5c2.8,0,5.5-1.5,6.9-4l32.9-57.1l2.6-1l98.7,98.7
			L358.9,564.8z"/>
	</g>
</g>
<g>
	<g>
		<path class="st0" d="M207,209.5c-70.1,0-127.2,57.1-127.2,127.2S136.9,463.9,207,463.9c70.1,0,127.2-57.1,127.2-127.2
			S277.1,209.5,207,209.5z M207,448c-61.3,0-111.2-49.9-111.2-111.2S145.7,225.5,207,225.5c61.3,0,111.2,49.9,111.2,111.2
			S268.3,448,207,448z"/>
	</g>
</g>
<g>
	<g>
		<path class="st0" d="M298.9,311.3c-1.1-3.3-4.1-5.5-7.6-5.5h-58.9l-18.2-56c-1.1-3.3-4.1-5.5-7.6-5.5c-3.5,0-6.5,2.2-7.6,5.5
			l-18.2,56h-58.9c-3.5,0-6.5,2.2-7.6,5.5c-1.1,3.3,0.1,6.9,2.9,8.9l47.7,34.6l-18.2,56c-1.1,3.3,0.1,6.9,2.9,8.9
			c1.4,1,3,1.5,4.7,1.5s3.3-0.5,4.7-1.5l47.7-34.6l47.7,34.6c2.8,2,6.6,2,9.4,0c2.8-2,4-5.6,2.9-8.9l-18.2-56l47.7-34.6
			C298.8,318.2,300,314.6,298.9,311.3z M234.2,345.4c-2.8,2-4,5.6-2.9,8.9l12.4,38.2l-32.5-23.6c-2.8-2-6.6-2-9.4,0l-32.5,23.6
			l12.4-38.2c1.1-3.3-0.1-6.9-2.9-8.9l-32.5-23.6h40.2c3.5,0,6.5-2.2,7.6-5.5l12.4-38.2l12.4,38.2c1.1,3.3,4.1,5.5,7.6,5.5h40.2
			L234.2,345.4z"/>
	</g>
</g>
</svg>
