<?xml version="1.0" encoding="utf-8"?>
<!-- Generator: Adobe Illustrator 19.0.0, SVG Export Plug-In . SVG Version: 6.00 Build 0)  -->
<svg version="1.1" id="Capa_1" xmlns="http://www.w3.org/2000/svg" xmlns:xlink="http://www.w3.org/1999/xlink" x="0px" y="0px"
	 viewBox="-49 141 512 512" style="enable-background:new -49 141 512 512;" xml:space="preserve">
<style type="text/css">
	.st0{fill:#BCE2FF;}
</style>
<g>
	<path class="st0" d="M40.6,196.5c-21.2,0-38.4,17.2-38.4,38.4s17.2,38.4,38.4,38.4S79,256,79,234.9S61.8,196.5,40.6,196.5z
		 M40.6,256.2c-11.8,0-21.3-9.6-21.3-21.3c0-11.8,9.6-21.3,21.3-21.3s21.3,9.6,21.3,21.3C61.9,246.6,52.4,256.2,40.6,256.2z"/>
	<circle class="st0" cx="377.7" cy="222.1" r="8.5"/>
	<circle class="st0" cx="343.5" cy="222.1" r="8.5"/>
	<circle class="st0" cx="394.7" cy="247.7" r="8.5"/>
	<circle class="st0" cx="360.6" cy="247.7" r="8.5"/>
	<circle class="st0" cx="309.4" cy="222.1" r="8.5"/>
	<circle class="st0" cx="326.5" cy="247.7" r="8.5"/>
	<circle class="st0" cx="275.3" cy="222.1" r="8.5"/>
	<circle class="st0" cx="292.3" cy="247.7" r="8.5"/>
	<circle class="st0" cx="241.1" cy="222.1" r="8.5"/>
	<circle class="st0" cx="258.2" cy="247.7" r="8.5"/>
	<path class="st0" d="M463,285.1V184.6c0-21.7-17.6-39.3-39.3-39.3H-9.7c-21.7,0-39.3,17.6-39.3,39.3v100.5c0,12.5,6,23.6,15.2,30.8
		C-43,323.1-49,334.2-49,346.7v100.5c0,12.5,6,23.6,15.2,30.8C-43,485.3-49,496.3-49,508.9v100.5c0,21.7,17.6,39.3,39.3,39.3h433.3
		c21.7,0,39.3-17.6,39.3-39.3V508.9c0-12.5-6-23.6-15.2-30.8c9.2-7.2,15.2-18.3,15.2-30.8V346.7c0-12.5-6-23.6-15.2-30.8
		C457,308.7,463,297.7,463,285.1z M445.9,508.9v100.5c0,12.3-10,22.3-22.3,22.3H-9.7c-12.3,0-22.3-10-22.3-22.2V508.9
		c0-12.3,10-22.3,22.3-22.3h433.3C435.9,486.6,445.9,496.6,445.9,508.9z M445.9,346.7v100.5c0,12.3-10,22.3-22.3,22.3H-9.7
		c-12.3,0-22.3-10-22.3-22.2V346.7c0-12.3,10-22.3,22.3-22.3h433.3C435.9,324.5,445.9,334.5,445.9,346.7z M-9.7,307.4
		c-12.3,0-22.3-10-22.3-22.3V184.6c0-12.3,10-22.3,22.3-22.3h433.3c12.3,0,22.3,10,22.3,22.3v100.5c0,12.3-10,22.3-22.3,22.3
		L-9.7,307.4L-9.7,307.4z"/>
	<path class="st0" d="M40.6,435.4c21.2,0,38.4-17.2,38.4-38.4c0-21.2-17.2-38.4-38.4-38.4S2.2,375.8,2.2,397
		C2.2,418.2,19.4,435.4,40.6,435.4z M40.6,375.7c11.8,0,21.3,9.6,21.3,21.3c0,11.8-9.6,21.3-21.3,21.3s-21.3-9.6-21.3-21.3
		C19.3,385.2,28.8,375.7,40.6,375.7z"/>
	<circle class="st0" cx="377.7" cy="384.2" r="8.5"/>
	<circle class="st0" cx="343.5" cy="384.2" r="8.5"/>
	<circle class="st0" cx="394.7" cy="409.8" r="8.5"/>
	<circle class="st0" cx="360.6" cy="409.8" r="8.5"/>
	<circle class="st0" cx="309.4" cy="384.2" r="8.5"/>
	<circle class="st0" cx="326.5" cy="409.8" r="8.5"/>
	<circle class="st0" cx="275.3" cy="384.2" r="8.5"/>
	<circle class="st0" cx="292.3" cy="409.8" r="8.5"/>
	<circle class="st0" cx="241.1" cy="384.2" r="8.5"/>
	<circle class="st0" cx="258.2" cy="409.8" r="8.5"/>
	<path class="st0" d="M40.6,597.5c21.2,0,38.4-17.2,38.4-38.4s-17.2-38.4-38.4-38.4S2.2,538,2.2,559.1S19.4,597.5,40.6,597.5z
		 M40.6,537.8c11.8,0,21.3,9.6,21.3,21.3c0,11.8-9.6,21.3-21.3,21.3s-21.3-9.6-21.3-21.3C19.3,547.4,28.8,537.8,40.6,537.8z"/>
	<circle class="st0" cx="377.7" cy="546.3" r="8.5"/>
	<circle class="st0" cx="343.5" cy="546.3" r="8.5"/>
	<circle class="st0" cx="394.7" cy="571.9" r="8.5"/>
	<circle class="st0" cx="360.6" cy="571.9" r="8.5"/>
	<circle class="st0" cx="309.4" cy="546.3" r="8.5"/>
	<circle class="st0" cx="326.5" cy="571.9" r="8.5"/>
	<circle class="st0" cx="275.3" cy="546.3" r="8.5"/>
	<circle class="st0" cx="292.3" cy="571.9" r="8.5"/>
	<circle class="st0" cx="241.1" cy="546.3" r="8.5"/>
	<circle class="st0" cx="258.2" cy="571.9" r="8.5"/>
</g>
</svg>
