<?xml version="1.0" encoding="utf-8"?>
<!-- Generator: Adobe Illustrator 19.0.0, SVG Export Plug-In . SVG Version: 6.00 Build 0)  -->
<svg version="1.1" id="Capa_1" xmlns="http://www.w3.org/2000/svg" xmlns:xlink="http://www.w3.org/1999/xlink" x="0px" y="0px"
	 viewBox="-49 141 512 512" style="enable-background:new -49 141 512 512;" xml:space="preserve">
<style type="text/css">
	.st0{fill:#BCE2FF;}
</style>
<g>
	<path class="st0" d="M455.8,309.8l-25.5-25.5c-4.3-4.3-10.1-6.7-16.2-6.7c-6.1,0-11.9,2.4-16.2,6.7l-3.5,3.5
		c-33.7-22.5-72.8-34.3-113.9-34.4c-0.1,0-0.2,0-0.4,0c-25.5,0-50.2,4.5-73.4,13.3l44.7-44.7c5.7,2.7,11.9,4.1,18.3,4.1
		c11.3,0,22-4.4,30-12.5c8-8,12.5-18.7,12.5-30c0-11.3-4.4-22-12.5-30c-8.1-8-18.7-12.5-30-12.5s-22,4.4-30,12.5
		c-8,8.1-12.5,18.7-12.5,30c0,6.4,1.5,12.7,4.1,18.3l-80.5,80.5l-2.7-2.7c-4.3-4.3-10.1-6.7-16.2-6.7c-6.1,0-11.9,2.4-16.2,6.7
		L90,305.3c-4.3,4.3-6.7,10.1-6.7,16.2s2.4,11.9,6.7,16.2l2.7,2.7l-80.5,80.5c-5.7-2.7-11.9-4.1-18.3-4.1c-11.3,0-22,4.4-30,12.5
		c-16.6,16.6-16.6,43.6,0,60c8,8,18.7,12.5,30,12.5s22-4.4,30-12.5c13-13,15.8-32.5,8.3-48.3l44.7-44.7
		c-8.8,23.3-13.4,48.2-13.3,73.8c0.1,41,12,80.2,34.4,113.9l-4.3,4.3c-8.9,8.9-8.9,23.5,0,32.4l25.6,25.6c4.3,4.3,10.1,6.7,16.2,6.7
		c6.1,0,11.9-2.4,16.2-6.7l25.6-25.6c8.9-8.9,8.9-23.5,0-32.4l-25.6-25.6c-4.3-4.3-10.1-6.7-16.2-6.7s-11.9,2.4-16.2,6.7l-0.7,0.7
		c-36.8-59.7-35.3-137,4.9-195.1c2.6,1,5.4,1.6,8.3,1.6c6.1,0,11.9-2.4,16.2-6.7l25.6-25.6c6.6-6.6,8.3-16.3,5.1-24.5
		c58.1-40.2,135.4-41.9,195.1-4.9l-1.6,1.6c-8.9,8.9-8.9,23.5,0,32.4l25.6,25.6c4.3,4.3,10.1,6.7,16.2,6.7s11.9-2.4,16.2-6.7
		l25.6-25.6C464.8,333.3,464.8,318.8,455.8,309.8z M153.4,604.6l-17.9,17.9l-17.9-17.9l17.9-17.9L153.4,604.6z M259.6,173.6
		c2.6-2.6,6.2-4.1,10-4.1s7.3,1.5,10,4.1c2.6,2.6,4.1,6.2,4.1,10s-1.5,7.3-4.1,10c-2.6,2.6-6.2,4.1-10,4.1s-7.3-1.5-10-4.1l0,0l0,0
		c-2.6-2.6-4.1-6.2-4.1-10S257,176.4,259.6,173.6z M3.9,469.3c-2.6,2.6-6.2,4.1-10,4.1s-7.3-1.5-10-4.1c-5.6-5.6-5.6-14.5,0-19.9
		c2.6-2.6,6.2-4.1,10-4.1s7.3,1.5,10,4.1C9.5,454.8,9.5,463.9,3.9,469.3z M131.7,339.4l-17.9-17.9l17.9-17.9l8.9,8.9l0,0l0,0
		l8.9,8.9L131.7,339.4z M414,343.9L396,325.9L414,308l17.9,17.9L414,343.9z"/>
</g>
</svg>
