<?xml version="1.0" encoding="utf-8"?>
<!-- Generator: Adobe Illustrator 19.0.0, SVG Export Plug-In . SVG Version: 6.00 Build 0)  -->
<svg version="1.1" id="Capa_1" xmlns="http://www.w3.org/2000/svg" xmlns:xlink="http://www.w3.org/1999/xlink" x="0px" y="0px"
	 viewBox="-49 141 512 512" style="enable-background:new -49 141 512 512;" xml:space="preserve">
<style type="text/css">
	.st0{fill:#BCE2FF;}
</style>
<g>
	<g>
		<path class="st0" d="M97.7,451.8h223.5c5.8,0,10.5-4.7,10.5-10.5V311.7c0-5.8-4.7-10.5-10.5-10.5H97.7c-5.8,0-10.5,4.7-10.5,10.5
			v129.6C87.3,447.1,91.9,451.8,97.7,451.8z M97.7,311.7h223.5l0,129.6H97.7V311.7z"/>
		<path class="st0" d="M343.1,458.1H76c-1,0-2,0.6-2.4,1.5c-0.5,1-0.4,2.2,0.2,3.2c1.1,1.7,3,4.6,45,6.7c23.8,1.2,55.5,1.8,89.2,1.8
			c30.3,0,129.8-0.6,136.8-8.2c0.7-0.7,1-1.7,0.9-2.6C345.6,459.2,344.5,458.1,343.1,458.1z"/>
		<path class="st0" d="M296.6,344.5c-4.5,0-8.2,3.7-8.2,8.2c0,1,0.2,1.9,0.5,2.8l-18.1,21.9c-0.6-0.1-1.1-0.2-1.7-0.2
			c-1.9,0-3.6,0.7-5,1.8l-20.6-10.3c-0.5-4-3.9-7.2-8.1-7.2c-4.5,0-8.2,3.7-8.2,8.2c0,0.5,0.1,1,0.2,1.5l-19.9,18.1
			c-1-0.4-2.1-0.6-3.2-0.6c-1.2,0-2.4,0.3-3.4,0.8l-24.8-22.5c0.1-0.5,0.1-0.9,0.1-1.4c0-4.5-3.7-8.2-8.2-8.2c-3.2,0-6,1.9-7.3,4.6
			l-31.7,2.5c-1.4-2.3-4-3.8-6.9-3.8c-4.5,0-8.2,3.7-8.2,8.2c0,4.5,3.7,8.2,8.2,8.2c3.2,0,6-1.9,7.3-4.6l31.6-2.5
			c1.4,2.3,4,3.9,6.9,3.9c1.1,0,2.1-0.2,3.1-0.6l25.1,22.8c0,0.3-0.1,0.6-0.1,1c0,4.5,3.7,8.2,8.2,8.2s8.2-3.7,8.2-8.2
			c0-0.4-0.1-0.9-0.1-1.3l20.1-18.2c0.9,0.4,1.9,0.6,3,0.6c1.9,0,3.7-0.7,5.1-1.8l20.5,10.2c0.4,4.1,3.9,7.3,8.1,7.3
			c4.5,0,8.2-3.7,8.2-8.2c0-1-0.2-1.9-0.5-2.8l18.1-21.9c0.6,0.1,1.1,0.2,1.7,0.2c4.5,0,8.2-3.7,8.2-8.2
			C304.8,348.1,301.1,344.5,296.6,344.5z M122.4,372.9c-2.3,0-4.2-1.9-4.2-4.2s1.9-4.2,4.2-4.2c2.3,0,4.2,1.9,4.2,4.2
			S124.7,372.9,122.4,372.9z M168.2,369.6c-2.3,0-4.2-1.9-4.2-4.2s1.9-4.2,4.2-4.2s4.2,1.9,4.2,4.2S170.5,369.6,168.2,369.6z
			 M204.4,400.9c-2.3,0-4.2-1.9-4.2-4.2c0-2.3,1.9-4.2,4.2-4.2s4.2,1.9,4.2,4.2C208.7,399,206.8,400.9,204.4,400.9z M235.5,373.8
			c-2.3,0-4.2-1.9-4.2-4.2s1.9-4.2,4.2-4.2c2.3,0,4.2,1.9,4.2,4.2S237.9,373.8,235.5,373.8z M269.2,389.5c-2.3,0-4.2-1.9-4.2-4.2
			c0-2.3,1.9-4.2,4.2-4.2c2.3,0,4.2,1.9,4.2,4.2C273.4,387.6,271.5,389.5,269.2,389.5z M296.6,356.9c-2.3,0-4.2-1.9-4.2-4.2
			s1.9-4.2,4.2-4.2c2.3,0,4.2,1.9,4.2,4.2S298.9,356.9,296.6,356.9z"/>
	</g>
</g>
<path id="XMLID_5_" class="st0" d="M205.5,643.6c-10.3,0-20.1-2.4-27.6-6.7L9.8,539.9c-15.5-9-27.6-29.9-27.6-47.8V297.9
	c0-17.9,12.1-38.9,27.6-47.8L177.9,153c15-8.6,40.3-8.6,55.2,0l168.1,97.1c15.5,9,27.6,30,27.6,47.8V492c0,17.9-12.1,38.9-27.6,47.8
	l-168.1,97.1C225.6,641.2,215.8,643.6,205.5,643.6z M205.5,161.8c-7.6,0-14.8,1.7-19.9,4.6L17.5,263.5
	c-10.6,6.1-19.9,22.2-19.9,34.4V492c0,12.2,9.3,28.3,19.9,34.4l168.1,97.1c10.2,5.9,29.6,5.9,39.7,0l168.1-97.1
	c10.6-6.1,19.8-22.2,19.8-34.4V297.9c0-12.2-9.3-28.3-19.9-34.4l-168.1-97.1C220.3,163.5,213,161.8,205.5,161.8z"/>
</svg>
