<?xml version="1.0" encoding="utf-8"?>
<!-- Generator: Adobe Illustrator 19.0.0, SVG Export Plug-In . SVG Version: 6.00 Build 0)  -->
<svg version="1.1" id="Capa_1" xmlns="http://www.w3.org/2000/svg" xmlns:xlink="http://www.w3.org/1999/xlink" x="0px" y="0px"
	 viewBox="-49 141 512 512" style="enable-background:new -49 141 512 512;" xml:space="preserve">
<style type="text/css">
	.st0{fill:#BCE2FF;}
	.st1{fill:#BCE2FF;stroke:#BCE2FF;stroke-miterlimit:10;}
</style>
<path id="XMLID_5_" class="st0" d="M205.5,643.6c-10.3,0-20.1-2.4-27.6-6.7L9.8,539.9c-15.5-9-27.6-29.9-27.6-47.8V297.9
	c0-17.9,12.1-38.9,27.6-47.8L177.9,153c15-8.6,40.3-8.6,55.2,0l168.1,97.1c15.5,9,27.6,30,27.6,47.8V492c0,17.9-12.1,38.9-27.6,47.8
	l-168.1,97.1C225.6,641.2,215.8,643.6,205.5,643.6z M205.5,161.8c-7.6,0-14.8,1.7-19.9,4.6L17.5,263.5
	c-10.6,6.1-19.9,22.2-19.9,34.4V492c0,12.2,9.3,28.3,19.9,34.4l168.1,97.1c10.2,5.9,29.6,5.9,39.7,0l168.1-97.1
	c10.6-6.1,19.8-22.2,19.8-34.4V297.9c0-12.2-9.3-28.3-19.9-34.4l-168.1-97.1C220.3,163.5,213,161.8,205.5,161.8z"/>
<g>
	<g>
		<path class="st1" d="M90.6,296.3v201.4h229.8V296.3H90.6z M313.2,490.6H97.7v-154h215.6V490.6L313.2,490.6z M313.2,329.5H97.7
			v-26.1h215.6V329.5L313.2,329.5z"/>
	</g>
</g>
<g>
	<g>
		<rect x="108.3" y="312.9" class="st0" width="9.5" height="7.1"/>
	</g>
</g>
<g>
	<g>
		<rect x="122.5" y="312.9" class="st0" width="9.5" height="7.1"/>
	</g>
</g>
<g>
	<g>
		<rect x="293.1" y="312.9" class="st0" width="9.5" height="7.1"/>
	</g>
</g>
<g>
	<g>
		<path class="st1" d="M107.2,346.1v135h196.6v-135H107.2z M296.7,474H114.3V353.2h182.4L296.7,474L296.7,474z"/>
	</g>
</g>
<g>
	<g>
		<polygon class="st0" points="174.8,378.2 169.8,373.2 129.4,413.6 169.8,454 174.8,449 139.4,413.6 		"/>
	</g>
</g>
<g>
	<g>
		<polygon class="st0" points="241.1,373.2 236.1,378.2 271.5,413.6 236.1,449 241.1,454 281.6,413.6 		"/>
	</g>
</g>
<g>
	<g>
		
			<rect x="161" y="410" transform="matrix(-0.4258 0.9048 -0.9048 -0.4258 667.1656 403.7862)" class="st0" width="89" height="7.1"/>
	</g>
</g>
</svg>
