<?xml version="1.0" encoding="utf-8"?>
<!-- Generator: Adobe Illustrator 19.0.0, SVG Export Plug-In . SVG Version: 6.00 Build 0)  -->
<svg version="1.1" id="Capa_1" xmlns="http://www.w3.org/2000/svg" xmlns:xlink="http://www.w3.org/1999/xlink" x="0px" y="0px"
	 viewBox="-49 141 512 512" style="enable-background:new -49 141 512 512;" xml:space="preserve">
<style type="text/css">
	.st0{fill:#BCE2FF;}
</style>
<path id="XMLID_5_" class="st0" d="M205.5,643.6c-10.3,0-20.1-2.4-27.6-6.7L9.8,539.9c-15.5-9-27.6-29.9-27.6-47.8V297.9
	c0-17.9,12.1-38.9,27.6-47.8L177.9,153c15-8.6,40.3-8.6,55.2,0l168.1,97.1c15.5,9,27.6,30,27.6,47.8V492c0,17.9-12.1,38.9-27.6,47.8
	l-168.1,97.1C225.6,641.2,215.8,643.6,205.5,643.6z M205.5,161.8c-7.6,0-14.8,1.7-19.9,4.6L17.5,263.5
	c-10.6,6.1-19.9,22.2-19.9,34.4V492c0,12.2,9.3,28.3,19.9,34.4l168.1,97.1c10.2,5.9,29.6,5.9,39.7,0l168.1-97.1
	c10.6-6.1,19.8-22.2,19.8-34.4V297.9c0-12.2-9.3-28.3-19.9-34.4l-168.1-97.1C220.3,163.5,213,161.8,205.5,161.8z"/>
<g>
	<g>
		<path class="st0" d="M324.8,394.6c0-5-2.8-9.5-7.3-11.7l-17.6-8.8l17.6-8.8c0,0,0,0,0,0c4.5-2.2,7.3-6.7,7.3-11.7
			c0-5-2.8-9.5-7.3-11.7L218,292c-7.3-3.6-15.9-3.6-23.2,0l-99.5,49.8c-4.5,2.2-7.3,6.7-7.3,11.7c0,5,2.8,9.5,7.3,11.7l17.6,8.8
			l-17.6,8.8c-4.5,2.2-7.3,6.7-7.3,11.7s2.8,9.5,7.3,11.7l17.6,8.8L95.3,424c-4.5,2.2-7.3,6.7-7.3,11.7c0,5,2.8,9.5,7.3,11.8
			l99.5,49.8c3.6,1.8,7.6,2.7,11.6,2.7c4,0,8-0.9,11.6-2.7l99.5-49.8c4.5-2.2,7.3-6.7,7.3-11.8c0-5-2.8-9.5-7.3-11.7l-17.6-8.8
			l17.6-8.8C322,404.1,324.8,399.6,324.8,394.6z M100.1,355.5c-1.1-0.5-1.2-1.5-1.2-2s0.2-1.5,1.2-2l99.5-49.8
			c2.1-1.1,4.4-1.6,6.7-1.6c2.3,0,4.6,0.5,6.7,1.6l99.5,49.8c1.1,0.5,1.2,1.5,1.2,2s-0.2,1.5-1.2,2l-99.5,49.8
			c-4.2,2.1-9.3,2.1-13.5,0L100.1,355.5z M312.7,433.7c1.1,0.5,1.2,1.5,1.2,2c0,0.5-0.2,1.5-1.2,2l-99.5,49.8
			c-4.2,2.1-9.3,2.1-13.5,0l-99.5-49.8c-1.1-0.5-1.2-1.5-1.2-2c0-0.5,0.2-1.5,1.2-2l24.9-12.5l69.7,34.9c3.6,1.8,7.6,2.7,11.6,2.7
			c4,0,8-0.9,11.6-2.7l69.7-34.9L312.7,433.7z M312.7,396.6l-99.5,49.8c-4.2,2.1-9.3,2.1-13.5,0l-99.5-49.8c-1.1-0.5-1.2-1.5-1.2-2
			c0-0.5,0.2-1.5,1.2-2l24.9-12.5l69.7,34.9c3.6,1.8,7.6,2.7,11.6,2.7c4,0,8-0.9,11.6-2.7l69.7-34.9l24.9,12.5
			c1.1,0.5,1.2,1.5,1.2,2C313.9,395.1,313.7,396.1,312.7,396.6z"/>
	</g>
</g>
</svg>
