<?xml version="1.0" encoding="utf-8"?>
<!-- Generator: Adobe Illustrator 19.0.0, SVG Export Plug-In . SVG Version: 6.00 Build 0)  -->
<svg version="1.1" id="Capa_1" xmlns="http://www.w3.org/2000/svg" xmlns:xlink="http://www.w3.org/1999/xlink" x="0px" y="0px"
	 viewBox="-49 141 512 512" style="enable-background:new -49 141 512 512;" xml:space="preserve">
<style type="text/css">
	.st0{fill:#BCE2FF;}
</style>
<path id="XMLID_5_" class="st0" d="M205.5,643.6c-10.3,0-20.1-2.4-27.6-6.7L9.8,539.9c-15.5-9-27.6-29.9-27.6-47.8V297.9
	c0-17.9,12.1-38.9,27.6-47.8L177.9,153c15-8.6,40.3-8.6,55.2,0l168.1,97.1c15.5,9,27.6,30,27.6,47.8V492c0,17.9-12.1,38.9-27.6,47.8
	l-168.1,97.1C225.6,641.2,215.8,643.6,205.5,643.6z M205.5,161.8c-7.6,0-14.8,1.7-19.9,4.6L17.5,263.5
	c-10.6,6.1-19.9,22.2-19.9,34.4V492c0,12.2,9.3,28.3,19.9,34.4l168.1,97.1c10.2,5.9,29.6,5.9,39.7,0l168.1-97.1
	c10.6-6.1,19.8-22.2,19.8-34.4V297.9c0-12.2-9.3-28.3-19.9-34.4l-168.1-97.1C220.3,163.5,213,161.8,205.5,161.8z"/>
<path class="st0" d="M208.5,307c-48.9,0-89.5,40.6-89.5,89.5s40.6,89.5,89.5,89.5s89.5-40.6,89.5-89.5S257.4,307,208.5,307z
	 M277.7,431.1c-2.4,6-6,10.7-10.7,15.5l-16.7-16.7c6-7.2,10.7-16.7,10.7-27.4h23.9c0,6-1.2,11.9-3.6,17.9l-10.7-4.8l-4.8,10.7
	L277.7,431.1L277.7,431.1z M239.5,455l-10.7,4.8l4.8,10.7c-7.2,1.2-13.1,2.4-19.1,3.6v-23.9c10.7-1.2,19.1-4.8,27.4-10.7l16.7,16.7
	c-4.8,3.6-9.5,7.2-15.5,10.7L239.5,455L239.5,455z M177.5,455l-4.8,10.7c-6-2.4-10.7-6-15.5-10.7l17.9-16.7
	c7.2,6,16.7,10.7,27.4,10.7v23.9c-6,0-11.9-1.2-17.9-3.6l4.8-10.7L177.5,455z M156,390.5h-25.1c0-6,1.2-11.9,3.6-17.9l10.7,4.8
	l4.8-10.7l-10.7-4.8c2.4-6,6-10.7,10.7-15.5l16.7,16.7C160.8,371.4,156,379.8,156,390.5z M177.5,338l10.7-4.8l-3.6-10.7
	c6-1.2,11.9-2.4,17.9-3.6v23.9c-10.7,1.2-19.1,6-27.4,11.9L158.4,338c4.8-3.6,9.5-7.2,15.5-10.7L177.5,338L177.5,338z M277.7,361.9
	l-10.7,4.8l4.8,10.7l10.7-4.8c1.2,6,2.4,11.9,3.6,17.9h-23.9c-1.2-10.7-4.8-19.1-11.9-27.4l-16.7,16.7c2.4,4.8,4.8,10.7,4.8,16.7
	c0,16.7-13.1,29.8-29.8,29.8s-29.8-13.1-29.8-29.8s13.1-29.8,29.8-29.8c6,0,11.9,2.4,16.7,4.8l16.7-16.7c-8.4-6-16.7-10.7-27.4-11.9
	v-23.9c6,0,11.9,1.2,17.9,3.6l-4.8,10.7l10.7,4.8l4.8-10.7c6,2.4,10.7,6,15.5,10.7l-16.7,16.7l8.4,8.4l16.7-16.7
	C271.7,351.2,275.3,355.9,277.7,361.9L277.7,361.9z M139.3,431.1l10.7-4.8l-4.8-10.7l-10.7,4.8c-1.2-6-2.4-11.9-3.6-17.9h23.9
	c1.2,10.7,6,19.1,11.9,27.4L150,446.6C145.3,441.8,141.7,437.1,139.3,431.1z"/>
</svg>
