<?xml version="1.0" encoding="utf-8"?>
<!-- Generator: Adobe Illustrator 19.0.0, SVG Export Plug-In . SVG Version: 6.00 Build 0)  -->
<svg version="1.1" id="Capa_1" xmlns="http://www.w3.org/2000/svg" xmlns:xlink="http://www.w3.org/1999/xlink" x="0px" y="0px"
	 viewBox="-49 141 512 512" style="enable-background:new -49 141 512 512;" xml:space="preserve">
<style type="text/css">
	.st0{fill:#BCE2FF;}
	.st1{fill:#BCE2FF;stroke:#BCE2FF;stroke-width:10;stroke-miterlimit:10;}
	.st2{fill:none;stroke:#BCE2FF;stroke-width:10;stroke-miterlimit:10;}
</style>
<path id="XMLID_5_" class="st0" d="M205.5,643.6c-10.3,0-20.1-2.4-27.6-6.7L9.8,539.9c-15.5-9-27.6-29.9-27.6-47.8V297.9
	c0-17.9,12.1-38.9,27.6-47.8L177.9,153c15-8.6,40.3-8.6,55.2,0l168.1,97.1c15.5,9,27.6,30,27.6,47.8V492c0,17.9-12.1,38.9-27.6,47.8
	l-168.1,97.1C225.6,641.2,215.8,643.6,205.5,643.6z M205.5,161.8c-7.6,0-14.8,1.7-19.9,4.6L17.5,263.5
	c-10.6,6.1-19.9,22.2-19.9,34.4V492c0,12.2,9.3,28.3,19.9,34.4l168.1,97.1c10.2,5.9,29.6,5.9,39.7,0l168.1-97.1
	c10.6-6.1,19.8-22.2,19.8-34.4V297.9c0-12.2-9.3-28.3-19.9-34.4l-168.1-97.1C220.3,163.5,213,161.8,205.5,161.8z"/>
<g>
	<path class="st0" d="M300.4,334.5h-5.1c-2.8,0-5.1,2.3-5.1,5.1c0,2.8,2.3,5.1,5.1,5.1v147.9H180.1c0-2.8-2.3-5.1-5.1-5.1
		c-2.8,0-5.1,2.3-5.1,5.1v5.1c0,2.8,2.3,5.1,5.1,5.1h125.5c2.8,0,5.1-2.3,5.1-5.1V339.6C305.6,336.8,303.3,334.5,300.4,334.5z"/>
	<path class="st0" d="M286.1,478.4V320.1c0-2.8-2.3-5.1-5.1-5.1h-5.1c-2.8,0-5.1,2.3-5.1,5.1c0,2.8,2.3,5.1,5.1,5.1v147.9H160.6
		c0-2.8-2.3-5.1-5.1-5.1c-2.8,0-5.1,2.3-5.1,5.1v5.1c0,2.8,2.3,5.1,5.1,5.1h125.5C283.8,483.5,286.1,481.2,286.1,478.4z"/>
	<path class="st0" d="M266.6,458.9V300.6c0-2.8-2.3-5.1-5.1-5.1h-17c-2.8,0-5.1,2.3-5.1,5.1s2.3,5.1,5.1,5.1h11.9v147.9H141.1
		c0-2.8-2.3-5.1-5.1-5.1c-2.8,0-5.1,2.3-5.1,5.1v5.1c0,2.8,2.3,5.1,5.1,5.1h125.5C264.3,464,266.6,461.7,266.6,458.9z"/>
	<path class="st0" d="M247.1,439.4V318.7c0-0.2,0-0.3,0-0.5c0-0.1,0-0.2-0.1-0.4c0,0,0-0.1,0-0.1c0-0.1-0.1-0.3-0.1-0.4
		c0,0,0,0,0-0.1c0-0.1-0.1-0.3-0.2-0.4c0,0,0,0,0,0c-0.1-0.1-0.1-0.3-0.2-0.4c0,0,0,0,0-0.1c-0.1-0.1-0.1-0.2-0.2-0.3
		c0,0,0-0.1-0.1-0.1c-0.1-0.1-0.1-0.2-0.2-0.3c0,0-0.1-0.1-0.1-0.1c-0.1-0.1-0.2-0.2-0.2-0.3c0,0-0.1-0.1-0.1-0.1L208,277.5
		c0,0-0.1-0.1-0.1-0.1c-0.1-0.1-0.2-0.2-0.3-0.2c0,0-0.1-0.1-0.1-0.1c-0.1-0.1-0.2-0.1-0.3-0.2c0,0-0.1,0-0.1-0.1
		c-0.1-0.1-0.2-0.1-0.3-0.2c0,0,0,0-0.1,0c-0.1-0.1-0.3-0.1-0.4-0.2c0,0,0,0,0,0c-0.1-0.1-0.3-0.1-0.4-0.2c0,0,0,0-0.1,0
		c-0.1,0-0.3-0.1-0.4-0.1c0,0-0.1,0-0.1,0c-0.1,0-0.2,0-0.4-0.1c-0.2,0-0.3,0-0.5,0h-87.9c-2.8,0-5.1,2.3-5.1,5.1v158.2
		c0,2.8,2.3,5.1,5.1,5.1h125.5C244.8,444.5,247.1,442.2,247.1,439.4z M209.5,293.5l20,20h-20V293.5L209.5,293.5z M121.6,434.2V286.3
		h77.6v32.4c0,2.8,2.3,5.1,5.1,5.1h32.4v110.4H121.6z"/>
</g>
<path class="st1" d="M145.1,339.2h60.7H145.1z"/>
<line class="st2" x1="145.1" y1="355.7" x2="205.8" y2="355.7"/>
<line class="st2" x1="145.1" y1="371.8" x2="205.8" y2="371.8"/>
</svg>
