<?xml version="1.0" encoding="utf-8"?>
<!-- Generator: Adobe Illustrator 19.0.0, SVG Export Plug-In . SVG Version: 6.00 Build 0)  -->
<svg version="1.1" id="Режим_изоляции"
	 xmlns="http://www.w3.org/2000/svg" xmlns:xlink="http://www.w3.org/1999/xlink" x="0px" y="0px" viewBox="0 0 246.7 246.7"
	 style="enable-background:new 0 0 246.7 246.7;" xml:space="preserve">
<style type="text/css">
	.st0{fill:#BCE2FF;}
	.st1{fill:#FFFFFF;}
	.st2{fill:#231F20;}
</style>
<g>
	<path class="st0" d="M246.7,123.4c0,68.1-55.2,123.4-123.4,123.4C55.2,246.7,0,191.5,0,123.4C0,55.2,55.2,0,123.4,0
		C191.5,0,246.7,55.2,246.7,123.4z"/>
	<path class="st1" d="M224.2,123.4c0,55.7-45.1,100.8-100.8,100.8c-55.7,0-100.8-45.1-100.8-100.8c0-55.7,45.1-100.8,100.8-100.8
		C179,22.5,224.2,67.7,224.2,123.4z"/>
	<g>
		<path class="st2" d="M134.3,131.2c-0.2,0-0.3,0-0.5-0.1l-57.6-36c-0.4-0.3-0.5-0.8-0.3-1.2c0.3-0.4,0.8-0.5,1.2-0.3l57.6,36
			c0.4,0.3,0.5,0.8,0.3,1.2C134.9,131.1,134.6,131.2,134.3,131.2z"/>
	</g>
	<g>
		<path class="st2" d="M111.8,131.2c-0.3,0-0.6-0.2-0.8-0.5c-0.2-0.4-0.1-1,0.3-1.2l75.7-42.2c0.4-0.2,1-0.1,1.2,0.3
			c0.2,0.4,0.1,1-0.3,1.2l-75.7,42.2C112.1,131.2,112,131.2,111.8,131.2z"/>
	</g>
	<g>
		<path class="st2" d="M103.8,189.4c0,0-0.1,0-0.1,0c-0.2-0.1-0.4-0.3-0.3-0.6l24.9-83.1c0.1-0.2,0.3-0.4,0.5-0.3
			c0.2,0.1,0.4,0.3,0.3,0.6l-24.9,83.1C104.2,189.3,104,189.4,103.8,189.4z"/>
	</g>
	<g>
		<g>
			<path class="st2" d="M128.1,37.4c0,2.7-2.2,5-5,5c-2.7,0-5-2.2-5-5c0-2.7,2.2-5,5-5C125.9,32.5,128.1,34.7,128.1,37.4z"/>
			<path class="st2" d="M128.1,209c0,2.7-2.2,5-5,5c-2.7,0-5-2.2-5-5c0-2.7,2.2-5,5-5C125.9,204.1,128.1,206.3,128.1,209z"/>
		</g>
		<g>
			<path class="st2" d="M208.9,128.2c-2.7,0-5-2.2-5-5c0-2.7,2.2-5,5-5c2.7,0,5,2.2,5,5C213.9,126,211.6,128.2,208.9,128.2z"/>
			<path class="st2" d="M37.3,128.2c-2.7,0-5-2.2-5-5c0-2.7,2.2-5,5-5c2.7,0,5,2.2,5,5C42.3,126,40.1,128.2,37.3,128.2z"/>
		</g>
	</g>
	<g>
		<g>
			<path class="st2" d="M168.4,52.8c-0.5,0-0.9-0.1-1.3-0.4c-1.2-0.7-1.5-2.2-0.8-3.4c0.5-0.7,1.2-1.2,2.1-1.2
				c0.5,0,0.9,0.1,1.3,0.4c1.1,0.7,1.5,2.2,0.8,3.4C170,52.4,169.2,52.8,168.4,52.8z"/>
			<path class="st2" d="M77.9,198.6c-0.5,0-0.9-0.1-1.3-0.4c-1.1-0.7-1.5-2.2-0.8-3.4c0.5-0.7,1.2-1.2,2.1-1.2
				c0.5,0,0.9,0.1,1.3,0.4c1.1,0.7,1.5,2.2,0.8,3.4C79.5,198.1,78.7,198.6,77.9,198.6z"/>
		</g>
		<g>
			<path class="st2" d="M196,170.9c-0.5,0-0.9-0.1-1.3-0.4c-1.1-0.7-1.5-2.2-0.8-3.4c0.4-0.7,1.2-1.2,2.1-1.2c0.4,0,0.9,0.1,1.3,0.4
				c0.6,0.3,1,0.9,1.1,1.5c0.1,0.6,0,1.3-0.3,1.9C197.6,170.5,196.9,170.9,196,170.9z"/>
			<path class="st2" d="M50.2,80.4c-0.5,0-0.9-0.1-1.3-0.4c-1.2-0.7-1.5-2.2-0.8-3.4c0.4-0.7,1.2-1.2,2.1-1.2c0.5,0,0.9,0.1,1.3,0.4
				c0.6,0.3,0.9,0.9,1.1,1.5c0.1,0.6,0,1.3-0.3,1.9C51.9,80,51.1,80.4,50.2,80.4z"/>
		</g>
	</g>
	<g>
		<g>
			<path class="st2" d="M198.7,85.1c-0.9,0-1.8-0.5-2.2-1.3c-0.3-0.6-0.4-1.2-0.2-1.9c0.2-0.6,0.6-1.1,1.2-1.4
				c0.4-0.2,0.8-0.3,1.2-0.3c0.9,0,1.7,0.5,2.2,1.3c0.6,1.2,0.2,2.7-1,3.3C199.5,85,199.1,85.1,198.7,85.1z"/>
			<path class="st2" d="M47.6,166.3c-0.9,0-1.7-0.5-2.2-1.3c-0.6-1.2-0.2-2.7,1-3.3c0.4-0.2,0.8-0.3,1.2-0.3c0.9,0,1.7,0.5,2.2,1.3
				c0.3,0.6,0.4,1.2,0.2,1.9c-0.2,0.6-0.6,1.2-1.2,1.5C48.3,166.2,48,166.3,47.6,166.3z"/>
		</g>
		<g>
			<path class="st2" d="M163.7,201.3c-0.9,0-1.7-0.5-2.2-1.3c-0.6-1.2-0.2-2.7,1-3.3c0.4-0.2,0.7-0.3,1.2-0.3c0.9,0,1.8,0.5,2.2,1.3
				c0.6,1.2,0.2,2.7-1,3.3C164.5,201.2,164.1,201.3,163.7,201.3z"/>
			<path class="st2" d="M82.6,50.1c-0.9,0-1.7-0.5-2.2-1.3c-0.3-0.6-0.4-1.2-0.2-1.9c0.2-0.6,0.6-1.1,1.2-1.5
				c0.4-0.2,0.8-0.3,1.2-0.3c0.9,0,1.7,0.5,2.2,1.3c0.3,0.6,0.4,1.2,0.2,1.9c-0.2,0.6-0.6,1.2-1.2,1.5C83.3,50,83,50.1,82.6,50.1z"
				/>
		</g>
	</g>
	<circle class="st2" cx="123.4" cy="123.4" r="5"/>
	<g>
		<path class="st2" d="M191,88.1c0,1.9-1.6,3.5-3.5,3.5c-1.9,0-3.5-1.6-3.5-3.5c0-1.9,1.6-3.5,3.5-3.5C189.5,84.6,191,86.2,191,88.1
			z"/>
		<path class="st1" d="M189.6,88.1c0,1.1-0.9,2-2,2c-1.1,0-2-0.9-2-2c0-1.1,0.9-2,2-2C188.7,86.1,189.6,87,189.6,88.1z"/>
	</g>
	<g>
		<path class="st2" d="M79.4,94.2c0,1.9-1.6,3.5-3.5,3.5c-1.9,0-3.5-1.6-3.5-3.5c0-1.9,1.6-3.5,3.5-3.5
			C77.9,90.7,79.4,92.3,79.4,94.2z"/>
		<path class="st1" d="M78,94.2c0,1.1-0.9,2-2,2c-1.1,0-2-0.9-2-2c0-1.1,0.9-2,2-2C77.1,92.2,78,93.1,78,94.2z"/>
	</g>
</g>
</svg>
