<?xml version="1.0" encoding="utf-8"?>
<!-- Generator: Adobe Illustrator 19.0.0, SVG Export Plug-In . SVG Version: 6.00 Build 0)  -->
<svg version="1.1" id="Capa_1" xmlns="http://www.w3.org/2000/svg" xmlns:xlink="http://www.w3.org/1999/xlink" x="0px" y="0px"
	 viewBox="-49 141 512 512" style="enable-background:new -49 141 512 512;" xml:space="preserve">
<style type="text/css">
	.st0{fill:#BCE2FF;}
</style>
<path id="XMLID_5_" class="st0" d="M205.5,643.6c-10.3,0-20.1-2.4-27.6-6.7L9.8,539.9c-15.5-9-27.6-29.9-27.6-47.8V297.9
	c0-17.9,12.1-38.9,27.6-47.8L177.9,153c15-8.6,40.3-8.6,55.2,0l168.1,97.1c15.5,9,27.6,30,27.6,47.8V492c0,17.9-12.1,38.9-27.6,47.8
	l-168.1,97.1C225.6,641.2,215.8,643.6,205.5,643.6z M205.5,161.8c-7.6,0-14.8,1.7-19.9,4.6L17.5,263.5
	c-10.6,6.1-19.9,22.2-19.9,34.4V492c0,12.2,9.3,28.3,19.9,34.4l168.1,97.1c10.2,5.9,29.6,5.9,39.7,0l168.1-97.1
	c10.6-6.1,19.8-22.2,19.8-34.4V297.9c0-12.2-9.3-28.3-19.9-34.4l-168.1-97.1C220.3,163.5,213,161.8,205.5,161.8z"/>
<g>
	<g>
		<path class="st0" d="M290.4,308h-168c-15,0-27.2,12.2-27.2,27.2v114.8c0,15,12.2,27.2,27.2,27.2h168c15,0,27.2-12.2,27.2-27.2
			V335.3C317.6,320.3,305.4,308,290.4,308z M305.2,450.1c0,8.1-6.6,14.8-14.8,14.8h-168c-8.1,0-14.8-6.6-14.8-14.8V335.3
			c0-8.1,6.6-14.8,14.8-14.8h168c8.1,0,14.8,6.6,14.8,14.8L305.2,450.1L305.2,450.1z"/>
		<path class="st0" d="M235.4,391.2l54.4-48.8c2.5-2.3,2.8-6.2,0.5-8.8c-2.3-2.5-6.2-2.8-8.8-0.5l-75,67.3l-14.6-13.1
			c0,0-0.1-0.1-0.1-0.1c-0.3-0.3-0.6-0.6-1-0.9l-59.5-53.3c-2.6-2.3-6.5-2.1-8.8,0.5s-2.1,6.5,0.5,8.8l55,49.2l-54.8,51.3
			c-2.5,2.3-2.6,6.3-0.3,8.8c1.2,1.3,2.9,2,4.6,2c1.5,0,3-0.6,4.2-1.7l55.6-52l15.1,13.5c1.2,1.1,2.7,1.6,4.1,1.6
			c1.5,0,3-0.6,4.1-1.6l15.5-13.9l55.3,52.5c1.2,1.2,2.8,1.7,4.3,1.7c1.7,0,3.3-0.6,4.5-1.9c2.3-2.5,2.3-6.4-0.2-8.8L235.4,391.2z"
			/>
	</g>
</g>
</svg>
