<?xml version="1.0" encoding="utf-8"?>
<!-- Generator: Adobe Illustrator 19.0.0, SVG Export Plug-In . SVG Version: 6.00 Build 0)  -->
<svg version="1.1" id="Capa_1" xmlns="http://www.w3.org/2000/svg" xmlns:xlink="http://www.w3.org/1999/xlink" x="0px" y="0px"
	 viewBox="-49 141 512 512" style="enable-background:new -49 141 512 512;" xml:space="preserve">
<style type="text/css">
	.st0{fill:#BCE2FF;}
</style>
<path id="XMLID_5_" class="st0" d="M205.5,643.6c-10.3,0-20.1-2.4-27.6-6.7L9.8,539.9c-15.5-9-27.6-29.9-27.6-47.8V297.9
	c0-17.9,12.1-38.9,27.6-47.8L177.9,153c15-8.6,40.3-8.6,55.2,0l168.1,97.1c15.5,9,27.6,30,27.6,47.8V492c0,17.9-12.1,38.9-27.6,47.8
	l-168.1,97.1C225.6,641.2,215.8,643.6,205.5,643.6z M205.5,161.8c-7.6,0-14.8,1.7-19.9,4.6L17.5,263.5
	c-10.6,6.1-19.9,22.2-19.9,34.4V492c0,12.2,9.3,28.3,19.9,34.4l168.1,97.1c10.2,5.9,29.6,5.9,39.7,0l168.1-97.1
	c10.6-6.1,19.8-22.2,19.8-34.4V297.9c0-12.2-9.3-28.3-19.9-34.4l-168.1-97.1C220.3,163.5,213,161.8,205.5,161.8z"/>
<path class="st0" d="M301.5,312.8v27.4H178v-27.4H301.5z M315.2,299.1H164.3v54.9h150.9V299.1z"/>
<path class="st0" d="M95.7,299.1h54.9v54.9H95.7V299.1z"/>
<path class="st0" d="M301.5,381.4v27.4H178v-27.4H301.5z M315.2,367.6H164.3v54.9h150.9V367.6z"/>
<path class="st0" d="M95.7,367.6h54.9v54.9H95.7V367.6z"/>
<path class="st0" d="M301.5,449.9v27.4H178v-27.4H301.5z M315.2,436.2H164.3v54.9h150.9V436.2z"/>
<path class="st0" d="M95.7,436.2h54.9v54.9H95.7V436.2z"/>
</svg>
