<?xml version="1.0" encoding="utf-8"?>
<!-- Generator: Adobe Illustrator 19.0.0, SVG Export Plug-In . SVG Version: 6.00 Build 0)  -->
<svg version="1.1" id="object" xmlns="http://www.w3.org/2000/svg" xmlns:xlink="http://www.w3.org/1999/xlink" x="0px" y="0px"
	 viewBox="0 0 800 800" style="enable-background:new 0 0 800 800;" xml:space="preserve">
<style type="text/css">
	.st0{fill:#BCE2FF;}
	.st1{fill:none;stroke:#FFFFFF;stroke-width:8;stroke-miterlimit:10;}
	.st2{fill:none;stroke:#C380B5;stroke-width:2;stroke-linecap:round;stroke-miterlimit:10;}
	.st3{fill:none;stroke:#C380B5;stroke-width:2;stroke-linecap:round;stroke-miterlimit:10;stroke-dasharray:5.9672,5.9672;}
	.st4{fill:none;stroke:#C380B5;stroke-width:2;stroke-linecap:round;stroke-miterlimit:10;stroke-dasharray:5.8034,5.8034;}
	.st5{fill:none;stroke:#C380B5;stroke-width:2;stroke-linecap:round;stroke-miterlimit:10;stroke-dasharray:5.725,5.725;}
	.st6{fill:none;stroke:#C380B5;stroke-width:2;stroke-linecap:round;stroke-miterlimit:10;stroke-dasharray:5.6349,5.6349;}
	.st7{fill:none;stroke:#C380B5;stroke-width:2;stroke-linecap:round;stroke-miterlimit:10;stroke-dasharray:6.5794,6.5794;}
	.st8{fill:none;stroke:#C380B5;stroke-width:2;stroke-linecap:round;stroke-miterlimit:10;stroke-dasharray:6.2907,6.2907;}
	.st9{fill:none;stroke:#C380B5;stroke-width:2;stroke-linecap:round;stroke-miterlimit:10;stroke-dasharray:6.3131,6.3131;}
	.st10{fill:none;stroke:#C380B5;stroke-width:2;stroke-linecap:round;stroke-miterlimit:10;stroke-dasharray:5.8637,5.8637;}
	.st11{fill:none;stroke:#C380B5;stroke-width:2;stroke-linecap:round;stroke-miterlimit:10;stroke-dasharray:6.2476,6.2476;}
	.st12{fill:none;stroke:#C380B5;stroke-width:2;stroke-linecap:round;stroke-miterlimit:10;stroke-dasharray:5.8687,5.8687;}
	.st13{fill:none;stroke:#C380B5;stroke-width:2;stroke-linecap:round;stroke-miterlimit:10;stroke-dasharray:5.8061,5.8061;}
	.st14{fill:none;stroke:#C380B5;stroke-width:2;stroke-linecap:round;stroke-miterlimit:10;stroke-dasharray:6.105,6.105;}
	.st15{fill:none;stroke:#C380B5;stroke-width:2;stroke-linecap:round;stroke-miterlimit:10;stroke-dasharray:5.8564,5.8564;}
</style>
<g>
	<g>
		<rect x="8.3" y="89.5" class="st0" width="543" height="346.2"/>
		<polyline class="st1" points="110.2,193.4 26.3,193.4 26.3,106 531.6,106 531.6,270.5 492.2,270.5 492.2,155.7 454.5,155.7 
			454.5,270.5 331.2,270.5 		"/>
		<line class="st1" x1="185.6" y1="106" x2="185.6" y2="196.8"/>
		<line class="st1" x1="264.7" y1="157.4" x2="264.7" y2="106"/>
		<polyline class="st1" points="293.5,151.4 379.1,151.4 379.1,196.8 264.7,196.8 264.7,337.3 296.9,337.3 296.9,419.5 		"/>
		<polyline class="st1" points="334.6,388.7 334.6,304.7 295.2,304.7 295.2,222.5 413.4,222.5 413.4,106 		"/>
		<line class="st1" x1="65.7" y1="270.5" x2="264.7" y2="270.5"/>
		<polyline class="st1" points="26.3,388.7 65.7,388.7 65.7,301.3 225,301.3 225,376.7 264.7,376.7 		"/>
		<polyline class="st1" points="185.6,345 145.5,345 145.5,380.1 199.3,380.1 199.3,419.5 		"/>
		<line class="st1" x1="105.1" y1="337.3" x2="105.1" y2="419.5"/>
		<line class="st1" x1="372.3" y1="270.5" x2="372.3" y2="388.7"/>
		<polyline class="st1" points="492.2,345 420.2,345 420.2,301.3 531.6,301.3 531.6,419.5 26.3,419.5 26.3,231.1 219.8,231.1 
			219.8,151.4 		"/>
		<polyline class="st1" points="413.4,419.5 413.4,382.2 492.2,382.2 		"/>
		<polyline class="st1" points="145.5,157.4 65.7,157.4 65.7,106 		"/>
		<g>
			<g>
				<line class="st2" x1="8.3" y1="213.2" x2="11.3" y2="213.2"/>
				<line class="st3" x1="17.3" y1="213.2" x2="193.3" y2="213.2"/>
				<polyline class="st2" points="196.3,213.2 199.3,213.2 199.3,210.2 				"/>
				<line class="st4" x1="199.3" y1="204.4" x2="199.3" y2="137.6"/>
				<polyline class="st2" points="199.3,134.7 199.3,131.7 202.3,131.7 				"/>
				<line class="st5" x1="208" y1="131.7" x2="239.5" y2="131.7"/>
				<polyline class="st2" points="242.4,131.7 245.4,131.7 245.4,134.7 				"/>
				<line class="st6" x1="245.4" y1="140.4" x2="245.4" y2="171.4"/>
				<polyline class="st2" points="245.4,174.2 245.4,177.2 248.4,177.2 				"/>
				<line class="st7" x1="254.9" y1="177.2" x2="278" y2="177.2"/>
				<polyline class="st2" points="281.2,177.2 284.2,177.2 284.2,174.2 				"/>
				<line class="st6" x1="284.2" y1="168.5" x2="284.2" y2="137.5"/>
				<polyline class="st2" points="284.2,134.7 284.2,131.7 287.2,131.7 				"/>
				<line class="st8" x1="293.5" y1="131.7" x2="391" y2="131.7"/>
				<polyline class="st2" points="394.2,131.7 397.2,131.7 397.2,134.7 				"/>
				<line class="st9" x1="397.2" y1="141" x2="397.2" y2="201"/>
				<polyline class="st2" points="397.2,204.2 397.2,207.2 394.2,207.2 				"/>
				<line class="st10" x1="388.3" y1="207.2" x2="285.7" y2="207.2"/>
				<polyline class="st2" points="282.8,207.2 279.8,207.2 279.8,210.2 				"/>
				<line class="st11" x1="279.8" y1="216.4" x2="279.8" y2="313.3"/>
				<polyline class="st2" points="279.8,316.4 279.8,319.4 282.8,319.4 				"/>
				<line class="st12" x1="288.6" y1="319.4" x2="309.2" y2="319.4"/>
				<polyline class="st2" points="312.1,319.4 315.1,319.4 315.1,322.4 				"/>
				<line class="st13" x1="315.1" y1="328.2" x2="315.1" y2="395"/>
				<polyline class="st2" points="315.1,397.9 315.1,400.9 318.1,400.9 				"/>
				<line class="st14" x1="324.2" y1="400.9" x2="394.4" y2="400.9"/>
				<polyline class="st2" points="397.5,400.9 400.5,400.9 400.5,397.9 				"/>
				<line class="st15" x1="400.5" y1="392" x2="400.5" y2="348.1"/>
				<line class="st2" x1="400.5" y1="345.2" x2="400.5" y2="342.2"/>
			</g>
		</g>
	</g>
</g>
</svg>
