<?xml version="1.0" encoding="utf-8"?>
<!-- Generator: Adobe Illustrator 19.0.0, SVG Export Plug-In . SVG Version: 6.00 Build 0)  -->
<svg version="1.1" id="Capa_1" xmlns="http://www.w3.org/2000/svg" xmlns:xlink="http://www.w3.org/1999/xlink" x="0px" y="0px"
	 viewBox="0 0 595.3 595.3" style="enable-background:new 0 0 595.3 595.3;" xml:space="preserve">
<style type="text/css">
	.st0{fill:#E1F2F4;}
	.st1{fill:none;}
	.st2{fill:#D3EFF4;}
	.st3{fill:#BCE2FF;}
</style>
<g>
	<path class="st0" d="M165.6,289.9c-6.5,4-8.7,8.3-17.7,11.2c-10.2,1.4-19.6-5.6-21-15.8c-1.4-9.9,5.3-19.1,15.1-20.9
		c0.2-0.1,0.4-0.1,0.7-0.1c6.2-0.9,12.3,3.2,20,5.1l-5.6-39.6L56.6,244l5.6,39.4c-7.5-1.9-13.5-5.8-19.6-5c-0.2,0-0.5,0.1-0.7,0.1
		c-9.8,1.8-16.5,10.9-15.1,20.9c1.4,10.2,10.8,17.2,21,15.8c8.8-2.9,11.1-7.1,17.3-11l5.7,40.3l39.9-5.6c-1.7,8.1-6.2,14.4-5.3,20.9
		c0,0.2,0.1,0.5,0.1,0.7c1.8,9.8,11,16.5,20.9,15.1c10.2-1.4,17.2-10.8,15.8-21c-3-9.4-7.5-11.3-11.7-18.5l40.8-5.8L165.6,289.9z"/>
	<path class="st1" d="M218.1,221.6c1.9-7.5,5.8-13.5,5-19.6c0-0.2-0.1-0.5-0.1-0.7c-1.8-9.8-11-16.5-20.9-15.1
		c-10.2,1.4-17.2,10.8-15.8,21c2.9,8.8,7.1,11.1,11,17.3l-40.2,5.7l5.6,39.9c-8.1-1.7-14.4-6.2-20.9-5.3c-0.2,0-0.5,0.1-0.7,0.1
		c-9.8,1.8-16.5,10.9-15.1,20.9c1.4,10.2,10.8,17.2,21,15.8c9.4-3,11.3-7.5,18.5-11.7l5.8,40.8l40.4-5.7c-4-6.5-8.3-8.7-11.2-17.7
		c-1.4-10.2,5.6-19.6,15.8-21c9.9-1.4,19.1,5.3,20.9,15.1c0,0.2,0.1,0.5,0.1,0.7c0.9,6.2-3.2,12.3-5.1,20l39.6-5.6L257.5,216
		L218.1,221.6z"/>
	<path class="st2" d="M195,359.9c-9.4,3-11.3,7.5-18.5,11.7l-5.7-40.8l-40.4,5.7c4,6.5,8.3,8.7,11.2,17.7c1.4,10.2-5.6,19.6-15.8,21
		c-9.9,1.4-19.1-5.3-20.9-15.1c0-0.2-0.1-0.5-0.1-0.7c-0.9-6.2,3.2-12.3,5.1-20L70.3,345l14.2,100.5l39.4-5.6
		c-1.9,7.5-5.8,13.5-5,19.6c0,0.2,0.1,0.5,0.1,0.7c1.8,9.8,11,16.5,20.9,15.1c10.2-1.4,17.2-10.8,15.8-21c-2.9-8.8-7.1-11.1-11-17.3
		l40.2-5.7l-5.6-39.9c8.1,1.7,14.4,6.2,20.9,5.3c0.2,0,0.5-0.1,0.7-0.1c9.8-1.8,16.5-11,15.1-20.9
		C214.6,365.5,205.2,358.4,195,359.9z"/>
	<path class="st0" d="M294.9,345.5c-8.8,2.9-11.1,7-17.3,11l-5.7-40.3l-39.9,5.6c1.7-8.1,6.2-14.4,5.3-20.9c0-0.2-0.1-0.5-0.1-0.7
		c-1.8-9.8-11-16.5-20.9-15.1c-10.2,1.4-17.2,10.8-15.8,21c3,9.4,7.5,11.3,11.7,18.5l-40.8,5.8l5.7,40.4c6.5-4,8.7-8.3,17.7-11.2
		c10.2-1.4,19.6,5.6,21,15.8c1.4,9.9-5.3,19.1-15.1,20.9c-0.2,0.1-0.5,0.1-0.7,0.1c-6.2,0.9-12.3-3.2-20-5.1l5.6,39.6l100.5-14.2
		l-5.6-39.4c7.5,1.9,13.5,5.8,19.6,5c0.2,0,0.5-0.1,0.7-0.1c9.8-1.8,16.5-11,15.1-20.9C314.4,351.2,305,344.1,294.9,345.5z"/>
</g>
<g>
	<path class="st3" d="M279.8,154.8c0-0.2,0-0.5,0-0.7c-0.2-9.9-8.2-18-18.2-18.2c-10.3-0.2-18.7,8-18.9,18.2
		c1.4,9.2,5.2,12.1,8.1,18.9l-40.6-0.8l-0.8,40.3c-7.7-3-13.2-8.4-19.8-8.5c-0.2,0-0.5,0-0.7,0c-9.9,0.2-18,8.2-18.2,18.2
		c-0.2,10.3,8,18.7,18.2,18.9c9.7-1.5,12.4-5.6,20.1-8.6l-0.8,41.2l40.8,0.8c-2.9-7.1-6.8-9.9-8.3-19.2c0.2-10.3,8.7-18.4,18.9-18.2
		c10,0.2,18,8.3,18.2,18.2c0,0.2,0,0.5,0,0.7c-0.1,6.3-5.1,11.7-8.2,18.9l40,0.8l2-101.5l-39.8-0.8
		C274.8,166.3,279.7,161,279.8,154.8z"/>
</g>
</svg>
