<?xml version="1.0" encoding="utf-8"?>
<!-- Generator: Adobe Illustrator 19.0.0, SVG Export Plug-In . SVG Version: 6.00 Build 0)  -->
<svg version="1.1" id="Capa_1" xmlns="http://www.w3.org/2000/svg" xmlns:xlink="http://www.w3.org/1999/xlink" x="0px" y="0px"
	 viewBox="-49 141 512 512" style="enable-background:new -49 141 512 512;" xml:space="preserve">
<style type="text/css">
	.st0{fill:#BCE2FF;}
	.st1{fill:#BCE2FF;stroke:#BCE2FF;stroke-width:3;stroke-miterlimit:10;}
</style>
<path id="XMLID_5_" class="st0" d="M205.5,643.6c-10.3,0-20.1-2.4-27.6-6.7L9.8,539.9c-15.5-9-27.6-29.9-27.6-47.8V297.9
	c0-17.9,12.1-38.9,27.6-47.8L177.9,153c15-8.6,40.3-8.6,55.2,0l168.1,97.1c15.5,9,27.6,30,27.6,47.8V492c0,17.9-12.1,38.9-27.6,47.8
	l-168.1,97.1C225.6,641.2,215.8,643.6,205.5,643.6z M205.5,161.8c-7.6,0-14.8,1.7-19.9,4.6L17.5,263.5
	c-10.6,6.1-19.9,22.2-19.9,34.4V492c0,12.2,9.3,28.3,19.9,34.4l168.1,97.1c10.2,5.9,29.6,5.9,39.7,0l168.1-97.1
	c10.6-6.1,19.8-22.2,19.8-34.4V297.9c0-12.2-9.3-28.3-19.9-34.4l-168.1-97.1C220.3,163.5,213,161.8,205.5,161.8z"/>
<g>
	<path class="st1" d="M253.4,385.7c-5-3.3-11.1-6.1-18.1-8.3c-6.7-2.1-14.3-4.1-22.3-5.8c-6.3-1.4-10.8-2.6-13.5-3.3
		c-2.4-0.7-4.8-1.6-7.1-2.8c-1.9-1-3.4-2.1-4.4-3.2c-0.6-0.8-0.9-1.6-0.9-2.8c0-1.4,0.5-3.2,4-5.5c3.5-2.3,8.4-3.5,14.6-3.5
		c8.7,0,12.3,1.8,13.7,2.9c2.9,2.2,5.4,5.4,7.7,9.6c2.4,4.2,4.6,7.1,6.9,9.1c2.9,2.6,6.8,3.9,11.7,3.9c5.3,0,10-2,13.6-5.7
		c3.5-3.7,5.4-8.1,5.4-12.9c0-4.5-1.2-9.1-3.7-13.6c-2.4-4.4-6-8.5-10.9-12.4c-4.8-3.7-10.8-6.8-17.9-9c-7-2.2-15.3-3.3-24.6-3.3
		c-11.7,0-22,1.7-30.8,4.9c-9.2,3.4-16.4,8.4-21.4,15c-5.1,6.7-7.7,14.4-7.7,23c0,9,2.5,16.7,7.5,22.9c4.7,5.9,11.1,10.6,18.9,13.9
		c7.2,3.1,16.3,5.8,26.9,8.1c7.4,1.5,13.4,3,17.8,4.4c3.6,1.1,6.6,2.7,8.8,4.8c1.6,1.5,2.3,3.4,2.3,6c0,2.3-0.6,5.3-5.3,8.5
		c-4.2,2.9-10.1,4.4-17.3,4.4c-5.3,0-9.4-0.7-12.4-2.1c-2.9-1.4-5.1-3-6.6-5c-1.8-2.4-3.5-5.5-5.1-9.1c-1.9-4.4-4.3-7.9-7.1-10.3
		c-3.3-2.8-7.3-4.2-11.8-4.2c-5.3,0-10,1.8-13.6,5.1c-3.7,3.5-5.6,7.9-5.6,12.9c0,6.8,2.4,13.8,7.2,20.7c4.6,6.7,10.7,12,18,16
		c10,5.3,22.8,8,37.8,8c12.5,0,23.6-2,32.9-5.8c9.6-4,17.1-9.7,22.3-17c5.2-7.4,7.8-15.7,7.8-24.9c0-7.7-1.6-14.3-4.7-19.8
		C263.1,393.8,258.8,389.3,253.4,385.7z M255.2,438.5c-4.1,5.8-10.2,10.4-18.1,13.7c-8.1,3.4-17.9,5.1-29.2,5.1
		c-13.5,0-24.7-2.3-33.3-6.9c-6-3.2-10.9-7.6-14.7-13c-3.7-5.3-5.5-10.4-5.5-15.2c0-2.3,0.8-4.2,2.6-5.9c1.8-1.7,4.2-2.6,7.1-2.6
		c2.3,0,4.2,0.6,5.7,1.9c1.7,1.5,3.2,3.7,4.5,6.8c1.9,4.4,4,8.1,6.3,11.1c2.4,3.2,5.8,5.8,10.1,7.9c4.2,2,9.8,3,16.5,3
		c9.2,0,16.8-2,22.7-6c6.3-4.3,9.4-9.8,9.4-16.3c0-5.2-1.8-9.6-5.4-12.9c-3.2-3-7.4-5.3-12.4-6.9c-4.7-1.5-11-3-18.6-4.6
		c-10-2.1-18.5-4.7-25.2-7.5c-6.4-2.7-11.5-6.5-15.2-11.1c-3.6-4.5-5.4-10.2-5.4-16.9c0-6.4,1.9-12.2,5.8-17.2
		c3.9-5.1,9.7-9,17.2-11.8c7.7-2.9,17-4.3,27.5-4.3c8.4,0,15.7,1,21.8,2.8c6,1.9,11,4.3,14.9,7.4c3.9,3,6.7,6.2,8.4,9.4
		c1.7,3.1,2.5,6.2,2.5,9.1c0,2.3-0.9,4.4-2.7,6.3c-1.8,1.9-4,2.8-6.8,2.8c-1.7,0-4-0.3-5.4-1.5c-1.4-1.3-3.1-3.5-4.9-6.5
		c-2.8-5.3-6.2-9.6-10.2-12.6c-4.3-3.2-10.6-4.8-19.5-4.8c-8.1,0-14.7,1.7-19.8,5c-5.5,3.6-8.3,8.2-8.3,13.5c0,3.4,1,6.3,3.1,8.8
		c1.8,2.2,4.4,4.2,7.5,5.7c2.9,1.5,5.9,2.6,8.8,3.4c2.8,0.8,7.5,1.9,14,3.4c7.9,1.7,15.1,3.6,21.5,5.6c6.2,2,11.6,4.4,15.8,7.2
		c4.1,2.7,7.4,6.1,9.6,10.2c2.3,4,3.4,9.1,3.4,15.2C261.2,426.2,259.2,432.8,255.2,438.5z M310.2,414.5c1.4-6.8,2.1-13.8,2.1-20.7
		c0-57.4-46.7-104.1-104.1-104.1c-5.4,0-10.8,0.4-16,1.2c-9.6-5.6-20.5-8.6-31.6-8.6c-34.4,0-62.4,28-62.4,62.4
		c0,10.5,2.6,20.8,7.7,30c-1.2,6.4-1.8,12.8-1.8,19.2c0,57.4,46.7,104.1,104.1,104.1c5.9,0,11.7-0.5,17.4-1.5
		c8.6,4.3,18.3,6.6,28,6.6c34.4,0,62.4-28,62.4-62.4C315.9,431.5,314,422.7,310.2,414.5z M253.5,493.5c-8.7,0-17.3-2.2-25-6.3
		l-1.5-0.8l-1.7,0.3c-5.6,1.1-11.5,1.6-17.3,1.6c-52.2,0-94.6-42.4-94.6-94.6c0-6.3,0.6-12.7,1.9-19l0.4-1.8l-0.9-1.6
		c-4.7-8.1-7.3-17.3-7.3-26.7c0-29.1,23.7-52.8,52.8-52.8c10,0,19.7,2.8,28.1,8.1l1.6,1l1.8-0.3c5.3-0.9,10.7-1.4,16.2-1.4
		c52.2,0,94.6,42.4,94.6,94.6c0,6.8-0.7,13.6-2.2,20.3l-0.4,1.6l0.7,1.5c3.7,7.3,5.5,15.2,5.5,23.5
		C306.4,469.8,282.7,493.5,253.5,493.5z"/>
</g>
</svg>
