<?xml version="1.0" encoding="utf-8"?>
<!-- Generator: Adobe Illustrator 19.0.0, SVG Export Plug-In . SVG Version: 6.00 Build 0)  -->
<svg version="1.1" id="Capa_1" xmlns="http://www.w3.org/2000/svg" xmlns:xlink="http://www.w3.org/1999/xlink" x="0px" y="0px"
	 viewBox="-49 141 512 512" style="enable-background:new -49 141 512 512;" xml:space="preserve">
<style type="text/css">
	.st0{fill:#BCE2FF;}
</style>
<path id="XMLID_5_" class="st0" d="M205.5,643.6c-10.3,0-20.1-2.4-27.6-6.7L9.8,539.9c-15.5-9-27.6-29.9-27.6-47.8V297.9
	c0-17.9,12.1-38.9,27.6-47.8L177.9,153c15-8.6,40.3-8.6,55.2,0l168.1,97.1c15.5,9,27.6,30,27.6,47.8V492c0,17.9-12.1,38.9-27.6,47.8
	l-168.1,97.1C225.6,641.2,215.8,643.6,205.5,643.6z M205.5,161.8c-7.6,0-14.8,1.7-19.9,4.6L17.5,263.5
	c-10.6,6.1-19.9,22.2-19.9,34.4V492c0,12.2,9.3,28.3,19.9,34.4l168.1,97.1c10.2,5.9,29.6,5.9,39.7,0l168.1-97.1
	c10.6-6.1,19.8-22.2,19.8-34.4V297.9c0-12.2-9.3-28.3-19.9-34.4l-168.1-97.1C220.3,163.5,213,161.8,205.5,161.8z"/>
<g>
	<path class="st0" d="M200.9,378.9c24.3,0,44.1-19.8,44.1-44.1c0-24.3-19.8-44.2-44.1-44.2c-24.3,0-44.1,19.8-44.1,44.2
		S176.6,378.9,200.9,378.9z"/>
	<path class="st0" d="M272.7,419.6h-3.8c-0.1,0-0.2,0-0.2-0.1v-3.9c0-2.8-2.1-5-4.8-5h-0.6c-2.8,0-5.1,2.3-5.1,5l0,4h-4
		c-2.7,0-5,2.3-5,5.1v0.6c0,2.7,2.2,4.8,5,4.8h3.9c0,0.1,0.1,0.1,0.1,0.2v3.8c0,2.7,2.3,5,5.1,5h0.6c2.7,0,4.8-2.2,4.8-5v-3.7
		c0-0.1,0.2-0.2,0.3-0.3h3.7c2.8,0,5-2.1,5-4.8v-0.6C277.7,421.9,275.4,419.6,272.7,419.6z"/>
	<path class="st0" d="M263.6,383.7c-7.7,0-14.9,2.1-21,5.8c-0.1,0-0.2,0-0.3,0h-82.8c-5.4,0-10.4,4.1-11.4,9.4l-7.6,38.7
		c-1,5,1.4,11.3,5.5,14.4c1.3,1,32.2,24,54.9,24c13.9,0,30.9-8.7,42.3-15.6c6,3.5,13,5.5,20.4,5.5c22.6,0,41.1-18.4,41.1-41.1
		S286.2,383.7,263.6,383.7z M263.6,450.8c-14.4,0-26-11.7-26-26c0-14.4,11.7-26,26-26c14.4,0,26,11.7,26,26
		C289.6,439.1,277.9,450.8,263.6,450.8z"/>
</g>
</svg>
