<?xml version="1.0" encoding="utf-8"?>
<!-- Generator: Adobe Illustrator 19.0.0, SVG Export Plug-In . SVG Version: 6.00 Build 0)  -->
<svg version="1.1" id="Capa_1" xmlns="http://www.w3.org/2000/svg" xmlns:xlink="http://www.w3.org/1999/xlink" x="0px" y="0px"
	 viewBox="-49 141 512 512" style="enable-background:new -49 141 512 512;" xml:space="preserve">
<style type="text/css">
	.st0{fill:#BCE2FF;}
</style>
<path id="XMLID_5_" class="st0" d="M205.5,643.6c-10.3,0-20.1-2.4-27.6-6.7L9.8,539.9c-15.5-9-27.6-29.9-27.6-47.8V297.9
	c0-17.9,12.1-38.9,27.6-47.8L177.9,153c15-8.6,40.3-8.6,55.2,0l168.1,97.1c15.5,9,27.6,30,27.6,47.8V492c0,17.9-12.1,38.9-27.6,47.8
	l-168.1,97.1C225.6,641.2,215.8,643.6,205.5,643.6z M205.5,161.8c-7.6,0-14.8,1.7-19.9,4.6L17.5,263.5
	c-10.6,6.1-19.9,22.2-19.9,34.4V492c0,12.2,9.3,28.3,19.9,34.4l168.1,97.1c10.2,5.9,29.6,5.9,39.7,0l168.1-97.1
	c10.6-6.1,19.8-22.2,19.8-34.4V297.9c0-12.2-9.3-28.3-19.9-34.4l-168.1-97.1C220.3,163.5,213,161.8,205.5,161.8z"/>
<g>
	<g>
		<path class="st0" d="M299.5,457.4h-41.8H171c-3.6,0-6.5,2.9-6.5,6.5v4c0,3.6,2.9,6.5,6.5,6.5h86.7h41.8h21.6v-17.1L299.5,457.4
			L299.5,457.4z"/>
		<circle class="st0" cx="157.4" cy="318.2" r="36.2"/>
		<path class="st0" d="M245.8,407l-83,0l-2,0v-9.6l-0.1-8.1c0-19.3-15.6-34.9-34.9-34.9c-0.7,0-1.3,0-1.9,0.1l0-0.1
			c-18.2,0-32.9,14.7-32.9,32.9v92.8h69.8v-39.6l-0.9-0.1c-0.1,0-0.1,0-0.1,0c-4.7,0-9.2-2-12.4-5.5L119,404.1
			c-0.9-1-0.8-2.5,0.1-3.4c1-0.9,2.5-0.8,3.4,0.1l28.3,30.9c2.3,2.5,5.5,4,9,4.1c0.2,0,3.3,0,3.3,0h82.6c8,0,14.4-6.5,14.4-14.4
			C260.3,413.5,253.8,407,245.8,407z"/>
		<path class="st0" d="M331.6,355.8c-3.4-1.2-7.1,0.6-8.2,4l-27.4,80h-98.1c-3.6,0-6.5,2.9-6.5,6.5c0,3.6,2.9,6.5,6.5,6.5h102.7
			c2.2,0,4.1-1.1,5.3-2.8c0.4-0.5,0.7-1.1,1-1.8l28.8-84.2C336.8,360.6,335,356.9,331.6,355.8z"/>
	</g>
</g>
</svg>
