<?xml version="1.0" encoding="utf-8"?>
<!-- Generator: Adobe Illustrator 19.0.0, SVG Export Plug-In . SVG Version: 6.00 Build 0)  -->
<svg version="1.1" id="Capa_1" xmlns="http://www.w3.org/2000/svg" xmlns:xlink="http://www.w3.org/1999/xlink" x="0px" y="0px"
	 viewBox="-49 141 512 512" style="enable-background:new -49 141 512 512;" xml:space="preserve">
<style type="text/css">
	.st0{fill:#BCE2FF;}
</style>
<path id="XMLID_5_" class="st0" d="M205.5,643.6c-10.3,0-20.1-2.4-27.6-6.7L9.8,539.9c-15.5-9-27.6-29.9-27.6-47.8V297.9
	c0-17.9,12.1-38.9,27.6-47.8L177.9,153c15-8.6,40.3-8.6,55.2,0l168.1,97.1c15.5,9,27.6,30,27.6,47.8V492c0,17.9-12.1,38.9-27.6,47.8
	l-168.1,97.1C225.6,641.2,215.8,643.6,205.5,643.6z M205.5,161.8c-7.6,0-14.8,1.7-19.9,4.6L17.5,263.5
	c-10.6,6.1-19.9,22.2-19.9,34.4V492c0,12.2,9.3,28.3,19.9,34.4l168.1,97.1c10.2,5.9,29.6,5.9,39.7,0l168.1-97.1
	c10.6-6.1,19.8-22.2,19.8-34.4V297.9c0-12.2-9.3-28.3-19.9-34.4l-168.1-97.1C220.3,163.5,213,161.8,205.5,161.8z"/>
<g>
	<g>
		<path class="st0" d="M252,436.3l-2.2-2.2c-0.1-0.1-0.2-0.2-0.3-0.3c-12.1,7.2-26,11-40.3,11c-17.9,0-35-5.9-48.9-16.9
			c-3.8,2.6-7.6,5.5-11.4,8.6c-3,2.4-4.7,6.2-4.7,10V465h65.2h65.2v-6.1l-19.2-19.2L252,436.3z"/>
		<path class="st0" d="M212.4,324.2h-2.9h-2.9c-13.3,0-24.2,10.8-24.2,24.2v26.8c0,4.2,2.1,7.9,5.4,10.1v22.9
			c6.6,3.4,13.9,5.2,21.5,5.2c7.7,0,15.2-1.8,21.8-5.3v-22.7c3.3-2.2,5.4-5.8,5.4-10.1v-26.8C236.5,335,225.7,324.2,212.4,324.2z"/>
		<path class="st0" d="M329.6,418.5c-13.9-11.4-28.9-19-32-20.5c-0.4-0.2-0.6-0.5-0.6-0.9v-21.7c2.7-1.8,4.5-4.9,4.5-8.4v-22.5
			c0-11.2-9.1-20.2-20.2-20.2h-2.4h-2.2c7.1,11.5,11.2,24.8,11.7,38.5c0.6,15.4-3.3,30.4-11,43.4c0.1,0.1,0.2,0.2,0.3,0.3l1,1
			l1.2,1.2l3.5,3.5l30.3,30.3h19.9V427C333.6,423.7,332.1,420.6,329.6,418.5z"/>
		<path class="st0" d="M316.2,459.2l-40-40l-3.5-3.5l-1.2-1.2l0,0l-1-1l-2.7,2.7l-5.8-5.8c23-27.1,21.7-67.8-3.9-93.4
			c-13.5-13.5-31.2-20.2-48.8-20.2s-35.3,6.8-48.8,20.2c-26.9,26.9-26.9,70.7,0,97.6c13.5,13.5,31.2,20.2,48.8,20.2
			c15.9,0,31.7-5.4,44.6-16.3l5.8,5.8L257,427l0,0l0,0l2.2,2.2l3.5,3.5l40,40c1.9,1.9,4.3,2.8,6.8,2.8s4.9-0.9,6.8-2.8
			C319.9,469,319.9,462.9,316.2,459.2C316.2,459.2,316.2,459.2,316.2,459.2z M250,406.5c-11.2,11.2-26,16.8-40.7,16.8
			c-14.7,0-29.4-5.6-40.7-16.8c-22.5-22.5-22.5-58.9,0-81.4c11.2-11.2,26-16.8,40.7-16.8c14.7,0,29.4,5.6,40.7,16.8
			C272.5,347.6,272.5,384.1,250,406.5z"/>
		<path class="st0" d="M142,324.2h-2h-2.4c-11.2,0-20.2,9.1-20.2,20.2v22.5c0,3.5,1.8,6.6,4.5,8.4V397c0,0.4-0.2,0.7-0.6,0.9
			c-3.1,1.5-18.1,9.1-32,20.5c-2.5,2.1-4,5.2-4,8.4v15.4h49.4c1-5.2,3.8-10,7.9-13.4c3.4-2.7,6.8-5.3,10.1-7.7
			C126.9,394.8,123.3,354.5,142,324.2z"/>
	</g>
</g>
</svg>
