<?xml version="1.0" encoding="utf-8"?>
<!-- Generator: Adobe Illustrator 19.0.0, SVG Export Plug-In . SVG Version: 6.00 Build 0)  -->
<svg version="1.1" id="Capa_1" xmlns="http://www.w3.org/2000/svg" xmlns:xlink="http://www.w3.org/1999/xlink" x="0px" y="0px"
	 viewBox="-49 141 512 512" style="enable-background:new -49 141 512 512;" xml:space="preserve">
<style type="text/css">
	.st0{fill:#BCE2FF;}
</style>
<path id="XMLID_5_" class="st0" d="M205.5,643.6c-10.3,0-20.1-2.4-27.6-6.7L9.8,539.9c-15.5-9-27.6-29.9-27.6-47.8V297.9
	c0-17.9,12.1-38.9,27.6-47.8L177.9,153c15-8.6,40.3-8.6,55.2,0l168.1,97.1c15.5,9,27.6,30,27.6,47.8V492c0,17.9-12.1,38.9-27.6,47.8
	l-168.1,97.1C225.6,641.2,215.8,643.6,205.5,643.6z M205.5,161.8c-7.6,0-14.8,1.7-19.9,4.6L17.5,263.5
	c-10.6,6.1-19.9,22.2-19.9,34.4V492c0,12.2,9.3,28.3,19.9,34.4l168.1,97.1c10.2,5.9,29.6,5.9,39.7,0l168.1-97.1
	c10.6-6.1,19.8-22.2,19.8-34.4V297.9c0-12.2-9.3-28.3-19.9-34.4l-168.1-97.1C220.3,163.5,213,161.8,205.5,161.8z"/>
<g>
	<path class="st0" d="M241.6,378.8c9.7,0,17.7-7.9,17.7-17.7c0-9.7-7.9-17.7-17.7-17.7c-9.7,0-17.7,7.9-17.7,17.7
		C224,370.9,231.9,378.8,241.6,378.8z"/>
	<path class="st0" d="M144.5,430.1c-1.4,0.4-2.9,0.6-4.4,0.6c-1.4,0-2.7-0.2-4.1-0.5c-3.1-0.8-5.7-2.6-7.8-4.9H123
		c-1.8,0-3.2-1.4-3.2-3.2v-10.8c-2.6-4.9-2.5-10.5,0-15.1v-7.6c-2.4-4.5-2.6-10.2,0-15v-51.8c0-1.8,1.4-3.2,3.2-3.2h76.1
		c1.5-1,3.2-1.9,5-2.3c1.4-0.4,2.9-0.6,4.4-0.6c2.7,0,5.3,0.6,7.6,1.8c0.3-5.2,3.1-9.8,7-12.7H123c-9.4,0-17.1,7.7-17.1,17.1V422
		c0,9.4,7.7,17.1,17.1,17.1h27.6C147.7,436.9,145.4,433.7,144.5,430.1z"/>
	<path class="st0" d="M294.8,304.5H260c4,2.9,6.7,7.5,7,12.7c2.4-1.2,5-1.8,7.6-1.8c3.4,0,6.6,1.1,9.4,2.9h10.8
		c1.8,0,3.2,1.4,3.2,3.2V339c2,3.8,2.5,8.1,1.4,12.2c-0.3,1.2-0.8,2.3-1.4,3.4v12.9c2.4,4.8,2.6,10.5,0,15.6V422
		c0,1.8-1.4,3.2-3.2,3.2h-90.4c-2,2.4-4.8,4.1-7.8,4.9c-1.3,0.4-2.7,0.5-4.1,0.5c-1.5,0-3-0.2-4.4-0.6c-0.2,0.7-0.4,1.4-0.7,2
		c-1.5,3.7-4.4,6.7-8,8.4v9.1c-10.9,1.2-19.4,10.3-19.4,21.4v6.4c0,2.9,2.3,5.2,5.2,5.2h87.4c2.9,0,5.2-2.3,5.2-5.2v-6.4
		c0-11.2-8.5-20.3-19.4-21.4V439h56.4c9.4,0,17.1-7.7,17.1-17.1V321.6C311.9,312.2,304.2,304.5,294.8,304.5z M247.4,471.1v1.2h-77
		v-1.2c0-6.2,5.1-11.3,11.3-11.3h54.4C242.4,459.8,247.4,464.9,247.4,471.1z"/>
	<path class="st0" d="M212,326.7c-1-0.6-2.2-0.9-3.4-0.9c-0.6,0-1.2,0.1-1.8,0.2c-1.7,0.5-3.2,1.6-4.1,3.2l-8.2,14.3
		c-1.9,3.2-0.8,7.4,2.5,9.3l6.2,3.6c-0.1,0.6-0.2,1.1-0.2,1.7c1.2,1.1,2.3,2.3,3.1,3.8l6.6,11.3c2.1,3.7,2.6,7.9,1.5,12
		c-0.8,2.8-2.2,5.2-4.3,7.2c0.9,0.9,1.7,2,2.4,3.1l5.8-3.3c2.6,2,5.4,3.7,8.4,5v7c0,3.7,3,6.8,6.8,6.8h16.5c3.7,0,6.8-3,6.8-6.8v-7
		c3.1-1.3,5.8-3,8.4-5l6.2,3.6c1,0.6,2.2,0.9,3.4,0.9c0.6,0,1.2-0.1,1.7-0.2c1.7-0.5,3.2-1.6,4.1-3.2l8.2-14.3
		c1.9-3.2,0.8-7.4-2.5-9.3L280,366c0.2-1.6,0.5-3.2,0.5-4.8c0-1.6-0.3-3.2-0.5-4.8l6.2-3.6c1.6-0.9,2.7-2.4,3.2-4.1
		c0.5-1.7,0.2-3.6-0.7-5.1l-8.2-14.2c-1.3-2.2-3.5-3.4-5.9-3.4c-1.2,0-2.3,0.3-3.4,0.9l-6.2,3.6c-2.6-2-5.4-3.7-8.4-5v-7
		c0-3.7-3-6.8-6.8-6.8h-16.5c-3.7,0-6.8,3-6.8,6.8v7c-3,1.3-5.8,3-8.4,5L212,326.7z M241.6,336.6c13.6,0,24.6,11,24.6,24.6
		c0,13.6-11,24.6-24.6,24.6c-13.6,0-24.6-11-24.6-24.6C217.1,347.6,228.1,336.6,241.6,336.6z"/>
	<path class="st0" d="M178.2,426.3v-5.5c2.4-1,4.6-2.4,6.7-4l4.9,2.8c0.8,0.5,1.7,0.7,2.7,0.7c0.5,0,0.9-0.1,1.4-0.2
		c1.4-0.4,2.6-1.3,3.3-2.5l6.6-11.3c1.5-2.6,0.6-5.9-2-7.3l-4.9-2.9c0.1-1.3,0.4-2.5,0.4-3.8c0-1.3-0.2-2.6-0.4-3.8l4.9-2.8
		c1.2-0.7,2.1-1.9,2.5-3.3c0.4-1.4,0.2-2.8-0.5-4.1l-6.6-11.3c-1-1.7-2.8-2.7-4.7-2.7c-0.9,0-1.8,0.2-2.7,0.7l-4.9,2.8
		c-2.1-1.6-4.3-3-6.7-4v-5.5c0-3-2.4-5.4-5.4-5.4h-13.1c-3,0-5.4,2.4-5.4,5.4v5.5c-2.4,1-4.6,2.4-6.7,4l-4.9-2.8
		c-0.8-0.5-1.7-0.7-2.7-0.7c-0.5,0-0.9,0.1-1.4,0.2c-1.4,0.4-2.5,1.3-3.3,2.5l-6.5,11.3c-1.5,2.6-0.6,5.9,2,7.4l4.9,2.8
		c-0.1,1.3-0.4,2.5-0.4,3.8c0,1.3,0.2,2.6,0.4,3.8l-4.9,2.8c-2.6,1.5-3.4,4.8-2,7.3l6.5,11.3c0.7,1.2,1.9,2.1,3.3,2.5
		c0.5,0.1,0.9,0.2,1.4,0.2c0.9,0,1.9-0.2,2.7-0.7l4.9-2.8c2.1,1.6,4.3,3,6.7,4v5.5c0,3,2.4,5.4,5.4,5.4h13.1
		C175.8,431.6,178.2,429.2,178.2,426.3z M151.5,392.3c0-8.2,6.6-14.8,14.8-14.8c8.2,0,14.9,6.6,14.9,14.8c0,8.2-6.6,14.8-14.9,14.8
		C158.2,407.1,151.5,400.5,151.5,392.3z"/>
</g>
</svg>
