<?xml version="1.0" encoding="utf-8"?>
<!-- Generator: Adobe Illustrator 19.0.0, SVG Export Plug-In . SVG Version: 6.00 Build 0)  -->
<svg version="1.1" id="Objects" xmlns="http://www.w3.org/2000/svg" xmlns:xlink="http://www.w3.org/1999/xlink" x="0px" y="0px"
	 viewBox="0 0 800 800" style="enable-background:new 0 0 800 800;" xml:space="preserve">
<style type="text/css">
	.st0{fill:#C4996C;}
	.st1{fill:#A8825A;}
	.st2{fill:#FFFFFF;}
	.st3{fill:#4F4A4B;}
	.st4{fill:#E6E4E9;}
	.st5{fill:#020202;}
	.st6{fill:#F2F7F7;}
	.st7{fill:#D7DDDD;}
	.st8{fill:#F78879;}
	.st9{fill:#99D898;}
	.st10{fill:#D2D3D4;}
	.st11{fill:#474340;}
	.st12{fill:#161514;}
	.st13{fill:#282728;}
	.st14{fill:#3D403F;}
	.st15{fill:#6A6B6B;}
	.st16{fill:#4E4F50;}
	.st17{fill:#323333;}
	.st18{fill:#232323;}
	.st19{fill:#1E1E1E;}
	.st20{fill:#353535;}
	.st21{fill:#4C4C4C;}
	.st22{fill:#535454;}
	.st23{fill:#CC462B;}
	.st24{fill:#EDECEA;}
	.st25{fill:#D8D7D6;}
	.st26{fill:#CE562C;}
	.st27{fill:#4C8EA5;}
	.st28{fill:#1B5868;}
	.st29{fill:#E5CE6A;}
	.st30{fill:#AF993C;}
	.st31{fill:#B29E47;}
	.st32{fill:#F9F4F4;}
	.st33{fill:#4F4F4F;}
</style>
<g>
	<g>
		<g>
			<g>
				<g>
					<g>
						<path class="st0" d="M792,559.9c0,7-5.7,12.7-12.7,12.7H26.9c-7,0-12.7-5.7-12.7-12.7V245.2c0-7,5.7-12.7,12.7-12.7h752.4
							c7,0,12.7,5.7,12.7,12.7V559.9z"/>
					</g>
					<path class="st1" d="M15.2,564.9c1.9,4.6,6.5,7.8,11.7,7.8h752.4c5.2,0,9.8-3.2,11.7-7.8H15.2z"/>
				</g>
				<g>
					<g>
						<g>
							<g>
								<g>
									<path class="st1" d="M307.3,388.8c1.3,5.4-2.1,10.9-7.4,12.2l-74.6,14.4c-5.4,1.3-10.9-2-12.1-7.4l-5.1-21.1
										c-1.3-5.4,2.1-10.9,7.4-12.2l70-16.8c5.4-1.3,10.9,2.1,12.2,7.4L307.3,388.8z"/>
									<path class="st1" d="M135.9,396.5l1.4,1.9c0,0,6.9,12.4,23,8.4c16.2-4,185.6-45.7,185.6-45.7s12.5-6.5,17.3-22.6
										L135.9,396.5z"/>
									<g>
										<path class="st2" d="M302,385.8c1.3,5.4-2.1,10.9-7.4,12.2l-70,16.8c-5.4,1.3-10.9-2.1-12.2-7.4l-5.1-21.1
											c-1.3-5.4,2.1-10.9,7.4-12.1l70-16.8c5.4-1.3,10.9,2.1,12.2,7.4L302,385.8z"/>
										<g>
											<path class="st3" d="M70.9,300.6l-0.7,9.7l65.5,86.1c0,0,6.2,9.7,22.4,5.7c16.2-4,188-46.3,188-46.3s11.9-5.3,14.7-13.6
												c7.4-21.9,28.3-110,28.3-110l-2.2-9L70.9,300.6z"/>
											<path class="st4" d="M134.3,394.6l1.4,1.9c0,0,6.2,9.7,22.4,5.7c16.2-4,185.6-45.7,185.6-45.7s14.8-1.8,19.6-17.9
												L134.3,394.6z"/>
											<polygon class="st5" points="70.2,310.3 389,232.3 363.2,338.5 134.3,394.6 											"/>
											<polygon class="st6" points="89.6,313.2 142.2,387 353.5,335.5 372.7,243.9 											"/>
										</g>
									</g>
								</g>
								<g>
									<g>
										<polygon class="st7" points="336.8,269 123.6,320.9 119.8,317.9 337.8,264.8 										"/>
										<polygon class="st7" points="335.5,277.5 130.1,327.3 126.4,324.2 336.5,273.3 										"/>
										<polygon class="st7" points="334.1,286.1 137.2,334.3 133.6,331.2 335.1,281.9 										"/>
										<polygon class="st7" points="284.2,306.1 144.7,341.8 141.3,338.7 285.1,301.9 										"/>
									</g>
									<polygon class="st8" points="146.6,348.8 163.3,369.5 263.1,344.6 249.9,323 									"/>
									<polygon class="st9" points="258.5,320.2 272.2,340.7 331.2,325.7 333.5,301.5 									"/>
								</g>
							</g>
							<g>
								<path class="st1" d="M437.7,478.2c0.2,1.9-1.2,3.4-3.1,3.3l-177.9-5.4c-1.9-0.1-3.5-1.7-3.5-3.6v-42.9
									c0-1.9,1.6-3.5,3.5-3.5h172.2c1.9,0,3.7,1.6,3.9,3.5L437.7,478.2z"/>
								<g>
									<path class="st10" d="M432.4,472.5c0,1.9-1.6,3.5-3.5,3.5H256.8c-1.9,0-3.5-1.6-3.5-3.5v-42.9c0-1.9,1.6-3.5,3.5-3.5h172.2
										c1.9,0,3.5,1.6,3.5,3.5V472.5z"/>
									<g>
										<g>
											<g>
												<path class="st2" d="M265.4,435.9c0,0.5-0.5,1-1,1h-6.2c-0.5,0-1-0.5-1-1v-6.2c0-0.5,0.5-1,1-1h6.2c0.5,0,1,0.5,1,1
													V435.9z"/>
											</g>
											<g>
												<path class="st2" d="M275.8,435.9c0,0.5-0.4,1-1,1h-6.2c-0.5,0-1-0.5-1-1v-6.2c0-0.5,0.5-1,1-1h6.2c0.6,0,1,0.5,1,1
													V435.9z"/>
											</g>
										</g>
										<g>
											<g>
												<path class="st2" d="M286.2,435.9c0,0.5-0.5,1-1,1H279c-0.5,0-1-0.5-1-1v-6.2c0-0.5,0.5-1,1-1h6.2c0.5,0,1,0.5,1,1
													V435.9z"/>
											</g>
											<g>
												<path class="st2" d="M296.7,435.9c0,0.5-0.5,1-1,1h-6.2c-0.5,0-1-0.5-1-1v-6.2c0-0.5,0.5-1,1-1h6.2c0.5,0,1,0.5,1,1
													V435.9z"/>
											</g>
										</g>
										<g>
											<g>
												<path class="st2" d="M307.1,435.9c0,0.5-0.4,1-1,1h-6.2c-0.6,0-1-0.5-1-1v-6.2c0-0.5,0.4-1,1-1h6.2c0.6,0,1,0.5,1,1
													V435.9z"/>
											</g>
											<g>
												<path class="st2" d="M317.5,435.9c0,0.5-0.4,1-1,1h-6.2c-0.6,0-1-0.5-1-1v-6.2c0-0.5,0.4-1,1-1h6.2c0.6,0,1,0.5,1,1
													V435.9z"/>
											</g>
										</g>
										<g>
											<g>
												<path class="st2" d="M328,435.9c0,0.5-0.4,1-1,1h-6.2c-0.5,0-1-0.5-1-1v-6.2c0-0.5,0.5-1,1-1h6.2c0.6,0,1,0.5,1,1V435.9
													z"/>
											</g>
											<g>
												<path class="st2" d="M338.4,435.9c0,0.5-0.5,1-1,1h-6.2c-0.6,0-1-0.5-1-1v-6.2c0-0.5,0.4-1,1-1h6.2c0.5,0,1,0.5,1,1
													V435.9z"/>
											</g>
										</g>
										<g>
											<path class="st2" d="M348.8,435.9c0,0.5-0.4,1-1,1h-6.2c-0.5,0-1-0.5-1-1v-6.2c0-0.5,0.5-1,1-1h6.2c0.6,0,1,0.5,1,1
												V435.9z"/>
										</g>
									</g>
									<g>
										<g>
											<g>
												<path class="st2" d="M265.4,447.9c0,0.5-0.5,1-1,1h-6.2c-0.5,0-1-0.5-1-1v-6.2c0-0.5,0.5-1,1-1h6.2c0.5,0,1,0.5,1,1
													V447.9z"/>
											</g>
											<g>
												<path class="st2" d="M275.8,447.9c0,0.5-0.4,1-1,1h-6.2c-0.5,0-1-0.5-1-1v-6.2c0-0.5,0.5-1,1-1h6.2c0.6,0,1,0.5,1,1
													V447.9z"/>
											</g>
										</g>
										<g>
											<g>
												<path class="st2" d="M286.2,447.9c0,0.5-0.5,1-1,1H279c-0.5,0-1-0.5-1-1v-6.2c0-0.5,0.5-1,1-1h6.2c0.5,0,1,0.5,1,1
													V447.9z"/>
											</g>
											<g>
												<path class="st2" d="M296.7,447.9c0,0.5-0.5,1-1,1h-6.2c-0.5,0-1-0.5-1-1v-6.2c0-0.5,0.5-1,1-1h6.2c0.5,0,1,0.5,1,1
													V447.9z"/>
											</g>
										</g>
										<g>
											<g>
												<path class="st2" d="M307.1,447.9c0,0.5-0.4,1-1,1h-6.2c-0.6,0-1-0.5-1-1v-6.2c0-0.5,0.4-1,1-1h6.2c0.6,0,1,0.5,1,1
													V447.9z"/>
											</g>
											<g>
												<path class="st2" d="M317.5,447.9c0,0.5-0.4,1-1,1h-6.2c-0.6,0-1-0.5-1-1v-6.2c0-0.5,0.4-1,1-1h6.2c0.6,0,1,0.5,1,1
													V447.9z"/>
											</g>
										</g>
										<g>
											<g>
												<path class="st2" d="M328,447.9c0,0.5-0.4,1-1,1h-6.2c-0.5,0-1-0.5-1-1v-6.2c0-0.5,0.5-1,1-1h6.2c0.6,0,1,0.5,1,1V447.9
													z"/>
											</g>
											<g>
												<path class="st2" d="M338.4,447.9c0,0.5-0.5,1-1,1h-6.2c-0.6,0-1-0.5-1-1v-6.2c0-0.5,0.4-1,1-1h6.2c0.5,0,1,0.5,1,1
													V447.9z"/>
											</g>
										</g>
										<g>
											<path class="st2" d="M348.8,447.9c0,0.5-0.4,1-1,1h-6.2c-0.5,0-1-0.5-1-1v-6.2c0-0.5,0.5-1,1-1h6.2c0.6,0,1,0.5,1,1
												V447.9z"/>
										</g>
									</g>
									<g>
										<g>
											<g>
												<path class="st2" d="M265.4,459.8c0,0.6-0.5,1-1,1h-6.2c-0.5,0-1-0.4-1-1v-6.2c0-0.6,0.5-1,1-1h6.2c0.5,0,1,0.4,1,1
													V459.8z"/>
											</g>
											<g>
												<path class="st2" d="M275.8,459.8c0,0.6-0.4,1-1,1h-6.2c-0.5,0-1-0.4-1-1v-6.2c0-0.6,0.5-1,1-1h6.2c0.6,0,1,0.4,1,1
													V459.8z"/>
											</g>
										</g>
										<g>
											<g>
												<path class="st2" d="M286.2,459.8c0,0.6-0.5,1-1,1H279c-0.5,0-1-0.4-1-1v-6.2c0-0.6,0.5-1,1-1h6.2c0.5,0,1,0.4,1,1
													V459.8z"/>
											</g>
											<g>
												<path class="st2" d="M296.7,459.8c0,0.6-0.5,1-1,1h-6.2c-0.5,0-1-0.4-1-1v-6.2c0-0.6,0.5-1,1-1h6.2c0.5,0,1,0.4,1,1
													V459.8z"/>
											</g>
										</g>
										<g>
											<g>
												<path class="st2" d="M307.1,459.8c0,0.6-0.4,1-1,1h-6.2c-0.6,0-1-0.4-1-1v-6.2c0-0.6,0.4-1,1-1h6.2c0.6,0,1,0.4,1,1
													V459.8z"/>
											</g>
											<g>
												<path class="st2" d="M317.5,459.8c0,0.6-0.4,1-1,1h-6.2c-0.6,0-1-0.4-1-1v-6.2c0-0.6,0.4-1,1-1h6.2c0.6,0,1,0.4,1,1
													V459.8z"/>
											</g>
										</g>
										<g>
											<g>
												<path class="st2" d="M328,459.8c0,0.6-0.4,1-1,1h-6.2c-0.5,0-1-0.4-1-1v-6.2c0-0.6,0.5-1,1-1h6.2c0.6,0,1,0.4,1,1V459.8
													z"/>
											</g>
											<g>
												<path class="st2" d="M338.4,459.8c0,0.6-0.5,1-1,1h-6.2c-0.6,0-1-0.4-1-1v-6.2c0-0.6,0.4-1,1-1h6.2c0.5,0,1,0.4,1,1
													V459.8z"/>
											</g>
										</g>
										<g>
											<path class="st2" d="M348.8,459.8c0,0.6-0.4,1-1,1h-6.2c-0.5,0-1-0.4-1-1v-6.2c0-0.6,0.5-1,1-1h6.2c0.6,0,1,0.4,1,1
												V459.8z"/>
										</g>
									</g>
									<g>
										<g>
											<path class="st2" d="M265.4,471.7c0,0.5-0.5,1-1,1h-6.2c-0.5,0-1-0.5-1-1v-6.2c0-0.6,0.5-1,1-1h6.2c0.5,0,1,0.4,1,1
												V471.7z"/>
										</g>
										<g>
											<path class="st2" d="M275.8,471.7c0,0.5-0.4,1-1,1h-6.2c-0.5,0-1-0.5-1-1v-6.2c0-0.6,0.5-1,1-1h6.2c0.6,0,1,0.4,1,1
												V471.7z"/>
										</g>
									</g>
									<g>
										<path class="st2" d="M318.5,464.5c-0.6,0-1.5,0-2,0h-2.4c-0.5,0-1.4,0-2,0h-1.8c-0.5,0-1.5,0-2,0h-2.7c-0.6,0-1.5,0-2,0
											H302c-0.5,0-1.4,0-2,0h-2.7c-0.5,0-1.5,0-2,0H292c-0.6,0-1.5,0-2,0h-0.9c-0.6,0-1.5,0-2,0h-8c-0.5,0-1,0.4-1,1v6.2
											c0,0.5,0.5,1,1,1h8c0.5,0,1.4,0,2,0h0.9c0.5,0,1.4,0,2,0h3.3c0.5,0,1.5,0,2,0h2.7c0.6,0,1.5,0,2,0h1.5c0.5,0,1.4,0,2,0
											h2.7c0.5,0,1.5,0,2,0h1.8c0.6,0,1.5,0,2,0h2.4c0.5,0,1.4,0,2,0h6.5c0.6,0,1-0.5,1-1v-6.2c0-0.6-0.4-1-1-1H318.5z"/>
									</g>
									<g>
										<path class="st2" d="M338.4,471.7c0,0.5-0.5,1-1,1h-6.2c-0.6,0-1-0.5-1-1v-6.2c0-0.6,0.4-1,1-1h6.2c0.5,0,1,0.4,1,1V471.7
											z"/>
									</g>
									<g>
										<path class="st2" d="M348.8,471.7c0,0.5-0.4,1-1,1h-6.2c-0.5,0-1-0.5-1-1v-6.2c0-0.6,0.5-1,1-1h6.2c0.6,0,1,0.4,1,1V471.7
											z"/>
									</g>
									<g>
										<g>
											<g>
												<path class="st2" d="M367.4,435.9c0,0.5-0.4,1-1,1h-6.2c-0.5,0-1-0.5-1-1v-6.2c0-0.5,0.5-1,1-1h6.2c0.6,0,1,0.5,1,1
													V435.9z"/>
											</g>
											<g>
												<path class="st2" d="M377.9,435.9c0,0.5-0.5,1-1,1h-6.2c-0.5,0-1-0.5-1-1v-6.2c0-0.5,0.5-1,1-1h6.2c0.5,0,1,0.5,1,1
													V435.9z"/>
											</g>
										</g>
										<g>
											<path class="st2" d="M388.3,435.9c0,0.5-0.5,1-1,1h-6.2c-0.6,0-1-0.5-1-1v-6.2c0-0.5,0.4-1,1-1h6.2c0.5,0,1,0.5,1,1
												V435.9z"/>
										</g>
									</g>
									<g>
										<g>
											<path class="st2" d="M367.4,447.9c0,0.5-0.4,1-1,1h-6.2c-0.5,0-1-0.5-1-1v-6.2c0-0.5,0.5-1,1-1h6.2c0.6,0,1,0.5,1,1
												V447.9z"/>
										</g>
										<g>
											<path class="st2" d="M377.9,447.9c0,0.5-0.5,1-1,1h-6.2c-0.5,0-1-0.5-1-1v-6.2c0-0.5,0.5-1,1-1h6.2c0.5,0,1,0.5,1,1
												V447.9z"/>
										</g>
									</g>
									<g>
										<path class="st2" d="M388.3,447.9c0,0.5-0.5,1-1,1h-6.2c-0.6,0-1-0.5-1-1v-6.2c0-0.5,0.4-1,1-1h6.2c0.5,0,1,0.5,1,1V447.9
											z"/>
									</g>
									<g>
										<g>
											<path class="st2" d="M367.4,471.7c0,0.5-0.4,1-1,1h-6.2c-0.5,0-1-0.5-1-1v-6.2c0-0.6,0.5-1,1-1h6.2c0.6,0,1,0.4,1,1
												V471.7z"/>
										</g>
										<g>
											<path class="st2" d="M377.9,471.7c0,0.5-0.5,1-1,1h-6.2c-0.5,0-1-0.5-1-1v-6.2c0-0.6,0.5-1,1-1h6.2c0.5,0,1,0.4,1,1
												V471.7z"/>
										</g>
									</g>
									<g>
										<path class="st2" d="M388.3,471.7c0,0.5-0.5,1-1,1h-6.2c-0.6,0-1-0.5-1-1v-6.2c0-0.6,0.4-1,1-1h6.2c0.5,0,1,0.4,1,1V471.7
											z"/>
									</g>
									<g>
										<path class="st2" d="M377.9,459.8c0,0.6-0.5,1-1,1h-6.2c-0.5,0-1-0.4-1-1v-6.2c0-0.6,0.5-1,1-1h6.2c0.5,0,1,0.4,1,1V459.8
											z"/>
									</g>
									<g>
										<g>
											<g>
												<path class="st2" d="M408.4,435.9c0,0.5-0.5,1-1,1h-6.2c-0.6,0-1-0.5-1-1v-6.2c0-0.5,0.4-1,1-1h6.2c0.5,0,1,0.5,1,1
													V435.9z"/>
											</g>
											<g>
												<path class="st2" d="M418.8,435.9c0,0.5-0.5,1-1,1h-6.2c-0.6,0-1-0.5-1-1v-6.2c0-0.5,0.4-1,1-1h6.2c0.5,0,1,0.5,1,1
													V435.9z"/>
											</g>
										</g>
										<g>
											<path class="st2" d="M429.3,435.9c0,0.5-0.5,1-1,1h-6.2c-0.6,0-1-0.5-1-1v-6.2c0-0.5,0.4-1,1-1h6.2c0.5,0,1,0.5,1,1
												V435.9z"/>
										</g>
									</g>
									<g>
										<g>
											<g>
												<path class="st2" d="M408.4,447.9c0,0.5-0.5,1-1,1h-6.2c-0.6,0-1-0.5-1-1v-6.2c0-0.5,0.4-1,1-1h6.2c0.5,0,1,0.5,1,1
													V447.9z"/>
											</g>
											<g>
												<path class="st2" d="M418.8,447.9c0,0.5-0.5,1-1,1h-6.2c-0.6,0-1-0.5-1-1v-6.2c0-0.5,0.4-1,1-1h6.2c0.5,0,1,0.5,1,1
													V447.9z"/>
											</g>
										</g>
										<g>
											<path class="st2" d="M429.3,447.9c0,0.5-0.5,1-1,1h-6.2c-0.6,0-1-0.5-1-1v-6.2c0-0.5,0.4-1,1-1h6.2c0.5,0,1,0.5,1,1
												V447.9z"/>
										</g>
									</g>
									<g>
										<g>
											<g>
												<path class="st2" d="M408.4,459.8c0,0.6-0.5,1-1,1h-6.2c-0.6,0-1-0.4-1-1v-6.2c0-0.6,0.4-1,1-1h6.2c0.5,0,1,0.4,1,1
													V459.8z"/>
											</g>
											<g>
												<path class="st2" d="M418.8,459.8c0,0.6-0.5,1-1,1h-6.2c-0.6,0-1-0.4-1-1v-6.2c0-0.6,0.4-1,1-1h6.2c0.5,0,1,0.4,1,1
													V459.8z"/>
											</g>
										</g>
										<g>
											<path class="st2" d="M429.3,459.8c0,0.6-0.5,1-1,1h-6.2c-0.6,0-1-0.4-1-1v-6.2c0-0.6,0.4-1,1-1h6.2c0.5,0,1,0.4,1,1
												V459.8z"/>
										</g>
									</g>
									<g>
										<g>
											<g>
												<path class="st2" d="M408.4,471.7c0,0.5-0.5,1-1,1h-6.2c-0.6,0-1-0.5-1-1v-6.2c0-0.6,0.4-1,1-1h6.2c0.5,0,1,0.4,1,1
													V471.7z"/>
											</g>
											<g>
												<path class="st2" d="M418.8,471.7c0,0.5-0.5,1-1,1h-6.2c-0.6,0-1-0.5-1-1v-6.2c0-0.6,0.4-1,1-1h6.2c0.5,0,1,0.4,1,1
													V471.7z"/>
											</g>
										</g>
										<g>
											<path class="st2" d="M429.3,471.7c0,0.5-0.5,1-1,1h-6.2c-0.6,0-1-0.5-1-1v-6.2c0-0.6,0.4-1,1-1h6.2c0.5,0,1,0.4,1,1
												V471.7z"/>
										</g>
									</g>
								</g>
							</g>
							<g>
								<g>
									<path class="st1" d="M547.7,486.4c0,4.7-2.7,8.5-7.8,8.5h-63.1c-5.1,0-12.7-5.9-12.7-10.6l3.4-59.4c0-4.7,4.2-8.5,9.3-8.5
										l61.2-3c5.1,0,9.7,6.9,9.7,11.5V486.4z"/>
									<path class="st11" d="M545.7,483.2c0,4.7-4.2,8.5-9.3,8.5h-63.1c-5.1,0-9.3-3.8-9.3-8.5v-61.5c0-4.7,4.2-8.5,9.3-8.5h63.1
										c5.1,0,9.3,3.8,9.3,8.5V483.2z"/>
								</g>
								<g>
									<path class="st12" d="M502.7,456.6c0.4,7.4-5.2,13.8-12.6,14.2l0,0c-7.4,0.4-13.8-5.2-14.2-12.6l-1.5-24.3
										c-0.4-7.4,5.2-13.8,12.6-14.2l0,0c7.4-0.4,13.8,5.2,14.2,12.6L502.7,456.6z"/>
									<g>
										<path class="st2" d="M499.2,453.5c0.4,7.4-5.2,13.8-12.6,14.2l0,0c-7.4,0.4-13.7-5.2-14.2-12.6l-1.5-24.3
											c-0.4-7.4,5.2-13.8,12.6-14.2l0,0c7.4-0.4,13.7,5.2,14.2,12.6L499.2,453.5z"/>
										<path class="st10" d="M486.1,431.6c0.1,1-0.7,1.8-1.7,1.9l0,0c-1,0.1-1.8-0.7-1.9-1.7l-0.4-7.1c-0.1-1,0.7-1.8,1.7-1.9
											l0,0c1-0.1,1.8,0.7,1.9,1.7L486.1,431.6z"/>
									</g>
								</g>
							</g>
						</g>
						<g>
							<g>
								<g>
									<path class="st1" d="M172.6,437.1l-31.5,5L81,451.6l-0.1-0.5l-16.4,2.6l1.8,11.2l-0.1,0l1.8,11.2l6.6,41.9l1.8,11.2l0.1,0
										l1.7,10.9l16.4-2.6l0-0.2l60.1-9.5l31.5-5c8.2-1.3,13.8-9,12.5-17.2l-8.8-55.8C188.5,441.5,180.8,435.8,172.6,437.1z"/>
									<path class="st1" d="M198.3,436.7l-0.1-0.5c-0.2-1.3-1.4-2.1-2.6-1.9c-1.3,0.2-2.1,1.4-1.9,2.6l0.1,0.5l-1.6,0.2l11.7,73.9
										l0,0l4.5,6.9l0.2,1.2l0.5-0.1l0.5-0.1l-0.2-1.2l2.1-8l0,0l-11.7-73.9L198.3,436.7z"/>
								</g>
								<g>
									<g>
										<path class="st13" d="M168.2,434l-31.5,5l-61.5,9.7L60.3,451l2.3,14.9l8.8,55.8l2.3,14.9l14.9-2.4l61.5-9.7l31.5-5
											c8.2-1.3,13.8-9,12.5-17.2l-8.8-55.8C184.1,438.3,176.4,432.7,168.2,434z"/>
										<path class="st14" d="M164.1,445.6l-25.1,4l-49,7.7l-28.1,4.4l1.8,11.2l6.6,41.9l1.8,11.2l28.1-4.4l49-7.7l25.1-4
											c6.5-1,11.1-6.9,10.1-13l-6.6-41.9C176.8,448.7,170.6,444.5,164.1,445.6z"/>
										<g>
											<path class="st15" d="M173.1,502.6l-74.8,11.8l-7.9-50.3l74.8-11.8L173.1,502.6z M100.8,511l68.8-10.9l-7-44.4
												l-68.8,10.9L100.8,511z"/>
										</g>
										<g>
											
												<rect x="64.3" y="449.7" transform="matrix(0.9878 -0.1559 0.1559 0.9878 -72.5991 16.9678)" class="st16" width="15.1" height="43.1"/>
											
												<rect x="71" y="492" transform="matrix(0.9878 -0.1559 0.1559 0.9878 -79.1177 18.5279)" class="st16" width="15.1" height="43.1"/>
											<g>
												<g>
													<path class="st15" d="M83.5,492l-16.4,2.6l-6.9-44l16.4-2.6L83.5,492z M68.4,492.8l13.4-2.1l-6.5-41l-13.4,2.1
														L68.4,492.8z"/>
												</g>
												<g>
													<path class="st15" d="M90.2,534.2l-16.4,2.6l-6.9-44l16.4-2.6L90.2,534.2z M75.1,535.1l13.4-2.1l-6.5-41l-13.4,2.1
														L75.1,535.1z"/>
												</g>
											</g>
										</g>
									</g>
									<g>
										<path class="st17" d="M192,431.1c1.3-0.2,2.4,0.7,2.6,1.9l0.1,0.8c0.2,1.2-0.7,2.4-1.9,2.6l0,0c-1.3,0.2-2.4-0.7-2.6-1.9
											l-0.1-0.8C189.9,432.5,190.8,431.3,192,431.1L192,431.1z"/>
										<g>
											<polygon class="st17" points="204.8,515.3 205,516.6 205.5,516.5 206,516.4 205.8,515.2 208,507.2 204.1,507.8 
												200.3,508.4 											"/>
											
												<rect x="160.9" y="467" transform="matrix(-0.1559 -0.9878 0.9878 -0.1559 -235.9053 740.1486)" class="st18" width="74.8" height="7.8"/>
										</g>
									</g>
								</g>
							</g>
							<g>
								<path class="st1" d="M750.5,312.3h-11.9v-0.2c0-5.2-4.3-9.5-9.5-9.5h-93.7c-5.2,0-9.5,4.3-9.5,9.5v0.2h-12.7
									c-5.9,0-10.8,4.8-10.8,10.8v90.8c0,5.9,4.8,10.8,10.8,10.8h19h1.9l-4.8,28.5l11.2,4.6l-4.7,34.8l80.8,4.1v-39h6.4v-33.1
									h27.4c5.9,0,10.8-4.8,10.8-10.8v-90.8C761.3,317.2,756.4,312.3,750.5,312.3z"/>
								<g>
									<g>
										<rect x="629.5" y="417.1" class="st19" width="90" height="36.1"/>
										<rect x="658.4" y="453.2" class="st20" width="32.1" height="15.7"/>
									</g>
									<rect x="636" y="382.7" class="st2" width="77.1" height="110"/>
									<g>
										<path class="st19" d="M621.2,306c0,5.3,4.3,9.6,9.6,9.6h94.9c5.3,0,9.6-4.3,9.6-9.6v-0.4c0-5.3-4.3-9.6-9.6-9.6h-94.9
											c-5.3,0-9.6,4.3-9.6,9.6V306z"/>
										<g>
											<path class="st20" d="M597.4,408.7c0,6,4.9,10.9,10.9,10.9h138.9c6,0,10.9-4.9,10.9-10.9v-92c0-6-4.9-10.9-10.9-10.9
												H608.3c-6,0-10.9,4.9-10.9,10.9V408.7z"/>
											<g>
												<path class="st21" d="M608.3,305.8h19.3v113.8h-19.3c-6,0-10.9-4.9-10.9-10.9v-92C597.4,310.7,602.3,305.8,608.3,305.8z
													"/>
												<g>
													<g>
														<rect x="599.3" y="323.2" class="st20" width="26.6" height="25.7"/>
														<rect x="600.9" y="328.7" class="st22" width="23.9" height="14.8"/>
													</g>
													<g>
														<circle class="st20" cx="612.6" cy="366.1" r="11.3"/>
														<path class="st22" d="M607.1,366.1c0,3,2.4,5.5,5.4,5.5c3,0,5.5-2.4,5.5-5.5c0-3-2.4-5.5-5.5-5.5
															C609.6,360.7,607.1,363.1,607.1,366.1z"/>
													</g>
													<g>
														<path class="st20" d="M613.6,386.5c0,0.5,0.4,0.8,0.8,0.8h6.9c0.5,0,0.8-0.4,0.8-0.8v-2.7c0-0.5-0.4-0.8-0.8-0.8h-6.9
															c-0.5,0-0.8,0.4-0.8,0.8V386.5z"/>
														<path class="st20" d="M602.9,386.5c0,0.5,0.4,0.8,0.8,0.8h6.9c0.5,0,0.8-0.4,0.8-0.8v-2.7c0-0.5-0.4-0.8-0.8-0.8h-6.9
															c-0.5,0-0.8,0.4-0.8,0.8V386.5z"/>
														<path class="st20" d="M613.6,392.3c0,0.5,0.4,0.8,0.8,0.8h6.9c0.5,0,0.8-0.4,0.8-0.8v-2.7c0-0.5-0.4-0.8-0.8-0.8h-6.9
															c-0.5,0-0.8,0.4-0.8,0.8V392.3z"/>
														<path class="st20" d="M602.9,392.3c0,0.5,0.4,0.8,0.8,0.8h6.9c0.5,0,0.8-0.4,0.8-0.8v-2.7c0-0.5-0.4-0.8-0.8-0.8h-6.9
															c-0.5,0-0.8,0.4-0.8,0.8V392.3z"/>
														<path class="st20" d="M613.6,398.2c0,0.5,0.4,0.8,0.8,0.8h6.9c0.5,0,0.8-0.4,0.8-0.8v-2.7c0-0.5-0.4-0.8-0.8-0.8h-6.9
															c-0.5,0-0.8,0.4-0.8,0.8V398.2z"/>
														<path class="st20" d="M602.9,398.2c0,0.5,0.4,0.8,0.8,0.8h6.9c0.5,0,0.8-0.4,0.8-0.8v-2.7c0-0.5-0.4-0.8-0.8-0.8h-6.9
															c-0.5,0-0.8,0.4-0.8,0.8V398.2z"/>
													</g>
												</g>
											</g>
											<path class="st21" d="M690.4,363.5c0,7-5.6,12.6-12.6,12.6c-7,0-12.6-5.6-12.6-12.6c0-7,5.6-12.6,12.6-12.6
												C684.7,350.9,690.4,356.6,690.4,363.5z"/>
										</g>
									</g>
								</g>
							</g>
							<g>
								<g>
									<polygon class="st1" points="539.3,289.5 470.2,255.1 417.7,344.9 489.9,389.5 									"/>
									<g>
										<polygon class="st23" points="487.1,383.5 417.7,344.9 469.9,251 539.3,289.5 										"/>
										
											<rect x="442" y="266.6" transform="matrix(0.8739 0.4861 -0.4861 0.8739 214.5343 -192.606)" class="st24" width="73" height="101.3"/>
										<g>
											
												<rect x="468.3" y="280.7" transform="matrix(0.8739 0.4861 -0.4861 0.8739 199.6909 -206.4594)" class="st25" width="59" height="2"/>
										</g>
										<g>
											
												<rect x="463.3" y="289.6" transform="matrix(0.8739 0.486 -0.486 0.8739 203.3896 -202.9013)" class="st25" width="59" height="2"/>
										</g>
										<g>
											
												<rect x="458.4" y="298.6" transform="matrix(0.8739 0.4861 -0.4861 0.8739 207.1383 -199.3712)" class="st25" width="59" height="2"/>
										</g>
										<g>
											
												<rect x="453.4" y="307.5" transform="matrix(0.8739 0.486 -0.486 0.8739 210.831 -195.8104)" class="st25" width="59" height="2"/>
										</g>
										<g>
											<polygon class="st25" points="482.9,321.4 451.6,304 452.6,302.2 483.9,319.7 											"/>
										</g>
										<g>
											
												<rect x="438.5" y="334.3" transform="matrix(0.8739 0.4861 -0.4861 0.8739 222.0054 -185.1813)" class="st25" width="59" height="2"/>
										</g>
										<g>
											<polygon class="st25" points="488.3,359.6 436.7,330.9 437.7,329.1 489.3,357.8 											"/>
										</g>
										<g>
											
												<rect x="430.6" y="344.4" transform="matrix(0.8739 0.4861 -0.4861 0.8739 223.8367 -172.2001)" class="st25" width="26.6" height="2"/>
										</g>
									</g>
								</g>
								<g>
									<g>
										<path class="st26" d="M538.4,260.1l-1.9-0.3l0.1-0.8l-5.7-0.9l-0.1,0.8l-2.8-0.5l-19.8-3.2l-1.6-0.3l-12.5-2l-2,12.5
											l-8.9,55.4l-2,12.5l12.5,2l1.6,0.3l19.8,3.2l2.8,0.5l-0.1,0.9l5.7,0.9l0.1-0.9l1.9,0.3c6.9,1.1,13.4-3.6,14.5-10.5l9-55.4
											C550,267.8,545.3,261.2,538.4,260.1z"/>
										<g>
											<path class="st27" d="M536.1,256.8l-10.4-1.7l-21.3-3.4l-12.5-2l-2,12.5l-8.9,55.4l-2,12.5l12.5,2l21.3,3.4l10.4,1.7
												c6.9,1.1,13.4-3.6,14.5-10.5l8.9-55.4C547.7,264.5,542.9,257.9,536.1,256.8z"/>
											
												<rect x="485.2" y="250.3" transform="matrix(0.9872 0.1594 -0.1594 0.9872 52.671 -74.7477)" class="st28" width="14.3" height="81.4"/>
											
												<rect x="521.9" y="254.8" transform="matrix(0.9872 0.1597 -0.1597 0.9872 54.0669 -80.0251)" class="st28" width="5.8" height="83.1"/>
										</g>
									</g>
									<g>
										<path class="st1" d="M569.7,294.9l-1.6-1l0.4-0.6l-4.9-3.1l-0.4,0.6l-2.4-1.5l-16.9-10.7l-1.3-0.8l-10.7-6.7l-6.7,10.7
											l-29.9,47.5l-6.7,10.7l10.7,6.7l1.3,0.8l16.9,10.7l2.4,1.5l-0.5,0.7l4.9,3.1l0.5-0.7l1.6,1c5.9,3.7,13.8,1.9,17.5-4
											l29.9-47.5C577.4,306.4,575.6,298.6,569.7,294.9z"/>
										<g>
											<path class="st29" d="M568.8,290.9l-8.9-5.6l-18.3-11.5l-10.7-6.7l-6.7,10.7l-29.9,47.5l-6.7,10.7l10.7,6.7l18.3,11.5
												l8.9,5.6c5.9,3.7,13.8,1.9,17.5-4l29.9-47.5C576.5,302.5,574.7,294.6,568.8,290.9z"/>
											
												<rect x="508.1" y="264.6" transform="matrix(0.8465 0.5323 -0.5323 0.8465 241.5877 -227.4201)" class="st30" width="14.3" height="81.4"/>
										</g>
									</g>
									<g>
										<path class="st31" d="M540.7,353.5l20.4-53.4c0.7-1.8-0.2-3.8-2-4.4l-26-10c-1.8-0.7-3.8,0.2-4.4,2l-20.4,53.4
											c-0.7,1.8,0.2,3.8,2,4.4l26,10C538,356.2,540,355.3,540.7,353.5z"/>
										<g>
											<g>
												<g>
													<path class="st32" d="M539.5,349.9c-0.7,1.8-2.7,2.7-4.4,2l-26-10c-1.8-0.7-2.6-2.7-2-4.4l20.4-53.4
														c0.7-1.8,2.7-2.7,4.4-2l26,10c1.8,0.7,2.7,2.7,2,4.4L539.5,349.9z"/>
													
														<rect x="518.6" y="294.8" transform="matrix(0.9339 0.3576 -0.3576 0.9339 148.5603 -169.8976)" class="st17" width="30" height="43.8"/>
												</g>
												
													<rect x="535.3" y="290.4" transform="matrix(0.9339 0.3575 -0.3575 0.9339 139.8894 -174.16)" class="st10" width="11.3" height="1.7"/>
												<path class="st10" d="M553.7,296.1c-0.2,0.4-0.7,0.7-1.1,0.5c-0.4-0.2-0.7-0.7-0.5-1.1c0.2-0.4,0.7-0.7,1.1-0.5
													C553.6,295.2,553.9,295.7,553.7,296.1z"/>
												<circle class="st33" cx="523.8" cy="342.3" r="2.2"/>
											</g>
										</g>
									</g>
								</g>
							</g>
						</g>
					</g>
				</g>
			</g>
		</g>
	</g>
</g>
</svg>
