<?xml version="1.0" encoding="utf-8"?>
<!-- Generator: Adobe Illustrator 19.0.0, SVG Export Plug-In . SVG Version: 6.00 Build 0)  -->
<svg version="1.1" id="Режим_изоляции"
	 xmlns="http://www.w3.org/2000/svg" xmlns:xlink="http://www.w3.org/1999/xlink" x="0px" y="0px" viewBox="0 0 151.3 280.6"
	 style="enable-background:new 0 0 151.3 280.6;" xml:space="preserve">
<style type="text/css">
	.st0{fill:#C8C8C8;}
	.st1{fill:#2A2932;}
	.st2{fill:#F2AE75;}
	.st3{fill:#F05D44;}
	.st4{fill:#3C2415;}
	.st5{fill:#E3B9A5;}
	.st6{fill:#32303A;}
	.st7{fill:#FFFFFF;}
	.st8{opacity:0.8;fill:#F6CCB8;}
	.st9{fill:#F6CCB8;}
	.st10{fill:#3C2417;}
	.st11{fill:#383643;}
	.st12{fill:#ADADAE;}
	.st13{fill:#E1E1E1;}
	.st14{opacity:0.5;fill:#FFFFFF;}
	.st15{opacity:0.2;fill:#FFFFFF;}
	.st16{fill:#BF8858;}
</style>
<g id="woman">
	<g id="woman_1_">
		<path class="st0" d="M120.1,269.4c-3.5,0-6.4-2.9-6.4-6.4c0-1.5,0.5-2.9,1.5-4l0.7-0.9l-0.9-0.7c-4.7-3.9-16.8-8.6-35.5-9.2
			l-1.2,0v8.2l0.6,0.3c2,1.1,3.2,3.2,3.2,5.5c0,3.5-2.9,6.4-6.4,6.4s-6.4-2.9-6.4-6.4c0-2.3,1.2-4.4,3.2-5.5l0.6-0.3v-8.2l-1.2,0
			c-18.7,0.6-30.8,5.3-35.5,9.2l-0.9,0.7l0.7,0.9c0.9,1.1,1.5,2.6,1.5,4c0,3.5-2.9,6.4-6.4,6.4c-3.5,0-6.4-2.9-6.4-6.4
			c0-3.2,2.4-5.9,5.5-6.3l0.5-0.1l0.3-0.4c5.6-7.1,21.6-12,40.8-12.6l1.1,0v-57.9H33.6c-3.5,0-6.4-1.7-6.4-5.2
			c0-3.5,2.9-5.2,6.4-5.2H72v-34.9H42.2c-3.7,0-6.7-3-6.7-6.7V89.4c0-3.7,3-6.7,6.7-6.7h67c3.7,0,6.7,3,6.7,6.7v44.2
			c0,3.7-3,6.7-6.7,6.7H78.7v34.9h39.1c3.5,0,6.4,1.7,6.4,5.2c0,3.5-2.9,5.2-6.4,5.2H78.3v57.9l1.1,0c19.2,0.6,35.2,5.6,40.8,12.6
			l0.3,0.4l0.5,0.1c3.1,0.4,5.5,3.1,5.5,6.3C126.4,266.5,123.6,269.4,120.1,269.4z"/>
		<g>
			<path class="st1" d="M97.7,132.9c5.1,15.7,17.3,42.6-3.7,45c-6.8,0.8-17.6,2.2-36.3,0c-19.9-2.4-8.9-29.3-3.7-45L97.7,132.9z"/>
			<g>
				<path class="st2" d="M58.1,173c-0.4-4.5,3-8.5,7.5-8.9c4.5-0.4,8.5,2.9,8.9,7.4c0,0,0,0.1,0,0.1c0,0,0,0,0,0c0,0.1,0,0.2,0,0.3
					l5.4,91.7l-9.3,0.8l-10.5-86.6C59.1,176.4,58.3,174.8,58.1,173z"/>
				<path class="st3" d="M79.5,255.9c0,0-0.5,6.5-4.3,6.8c-3.7,0.3-5.4-6-5.4-6s-0.7,3.8-0.5,6.3c0.4,4.6,2.4,7,6.4,6.6
					c4-0.4,5.6-3.1,5.2-7.6C80.8,259.6,79.5,255.9,79.5,255.9z"/>
			</g>
			<g>
				<path class="st2" d="M90.4,170.5c-0.7-4.5-4.9-7.6-9.4-6.9c-4.5,0.7-7.5,4.9-6.9,9.3c0,0,0,0.1,0,0.1c0,0,0,0,0,0
					c0,0.1,0,0.2,0.1,0.3l16.9,90.2l9.3-1.5l-10.8-86.5C90.3,174.1,90.7,172.3,90.4,170.5z"/>
				<path class="st3" d="M89.7,256.2c0,0,2.1,6.2,5.8,5.6c3.7-0.6,3.8-7.1,3.8-7.1s1.6,3.5,2,6c0.7,4.5-0.7,7.3-4.7,8
					c-4,0.6-6.2-1.6-6.9-6.1C89.3,260,89.7,256.2,89.7,256.2z"/>
			</g>
		</g>
		<g id="woman_2_">
			<path class="st4" d="M104.2,35.4c-0.1-0.2-0.2-0.4-0.3-0.6c-2.4-5.1-1.7-10-3.2-15.2C97.5,8.2,91.6,1.3,85.3,4.4
				c-9.1-9.6-22.1-0.6-24.4,1c-2.5,1.8-4,3-6.2,6.9C52,17.3,51,22.9,50,28.5c-1.1,6.1-6.4,10.8-7,17c-0.6,6.5,3.3,9.3-0.6,15.8
				c-1.5,2.5-4,5-4.8,7.8c-0.8,3.1,0.4,6.5-0.3,9.7c-1.1,4.6-6.2,6.8-6.8,11.4c-0.6,4.5,3.4,7.9,7,9.8c5.7,3.1,12.6,2.7,19,2.2
				c18.4-1.3,36.9,1.2,55.2-0.5c10.4-1,10.8-6.9,10.4-9.2c-0.5-3.2-4.2-5.5-5.7-8.4c-2.1-3.8,0.2-9.3-0.6-13.5
				c-0.8-4.3-4.6-6-5.7-10.3c-0.9-3.6,1-7.5,0.6-11.2C110.2,44,106.4,39.9,104.2,35.4z"/>
			<g>
				<polygon class="st2" points="83.2,72.5 83.2,62.9 68.2,62.9 68.2,72.5 64.4,72.8 68.2,97 83.2,97 86.9,72.8 				"/>
				<polygon class="st5" points="68.2,63 68.2,66.5 83.2,72.5 83.2,63 				"/>
			</g>
			<g>
				<path class="st6" d="M120.2,109.5c-4.3-9.9-15.2-29-18.5-32.1c-5.4-5.1-11.6-5-17.3-5.4c0,0,0,0.1,0,0.2l-8.7,23.9l-8.7-23.9
					c0-0.2,0-0.2,0-0.2c-5.7,0.4-11.9,0.2-17.3,5.4c-3.3,3.2-14.2,22.2-18.5,32.1c-1.8,4-1.5,8.7,0.8,12.5l11,23h6.1h24h0.1l2.4-9
					l2.4,9h0.1h24h6.1l11-23C121.6,118.2,121.9,113.6,120.2,109.5z"/>
				<g>
					<polygon class="st7" points="58.3,78 66.6,81.1 63.3,85.6 75.7,96 66.9,71.9 					"/>
					<polygon class="st7" points="93,78 84.4,72 75.7,96 88,85.6 84.8,81.1 					"/>
				</g>
			</g>
			<g>
				<g>
					<path class="st2" d="M93.3,36.8V29c0-8.3-9.6-18.7-17.2-18.7S58.9,20.7,58.9,29v7.8c-2.1,0-3.8,1.7-3.8,3.8v3.9
						c0,2.1,1.7,3.8,3.8,3.8c0,8.3,9.6,19,17.2,19s17.2-10.8,17.2-19c2.1,0,3.8-1.7,3.8-3.8v-3.9C97.1,38.5,95.4,36.8,93.3,36.8z"/>
					<path class="st8" d="M76.1,53.4v13.9c7.6,0,17.2-10.8,17.2-19c2.1,0,3.8-1.7,3.8-3.8v-3.9c0-2.1-1.7-3.8-3.8-3.8V29
						c0-8.3-9.6-18.7-17.2-18.7v30.4c-2.8,5.8-3.8,12-3.8,12L76.1,53.4z"/>
					<g>
						<g>
							<circle class="st9" cx="67" cy="41.2" r="3"/>
							<circle class="st10" cx="67" cy="40.5" r="3"/>
							<circle class="st7" cx="68" cy="39.6" r="0.7"/>
							<path class="st10" d="M70.6,38.1c-0.5-1.3-1.9-2.2-3.5-2.4c-0.9-0.1-2.7,0-4.2,2c-0.1,0-0.1,0-0.2,0c-0.2,0-0.4-0.1-0.6-0.2
								c-0.5-0.2-0.9-0.6-0.9-0.6c0,0-0.1,0-0.1,0c0,0-0.1,0.1,0,0.1c0,0,0.1,0.1,0.2,0.3c0.1,0.2,0.3,0.4,0.5,0.6
								c0.2,0.2,0.5,0.4,0.7,0.5c0.1,0.1,0.2,0.1,0.3,0.1c0.1,0,0.1,0,0.1,0c0.2,0,0.4-0.1,0.5-0.3c1-1.4,2.3-2.1,3.7-1.9
								c1.3,0.1,2.4,0.9,2.9,1.9c0.1,0.2,0.3,0.3,0.5,0.2C70.6,38.5,70.7,38.3,70.6,38.1z"/>
						</g>
						<g>
							<circle class="st9" cx="85.7" cy="41.2" r="3"/>
							<circle class="st10" cx="85.7" cy="40.5" r="3"/>
							<circle class="st7" cx="86.7" cy="39.6" r="0.7"/>
							<path class="st10" d="M82.1,38.1c0.5-1.3,1.9-2.2,3.5-2.4c0.9-0.1,2.7,0,4.2,2c0.1,0,0.1,0,0.2,0c0.2,0,0.4-0.1,0.6-0.2
								c0.5-0.2,0.9-0.6,0.9-0.6c0,0,0.1,0,0.1,0c0,0,0.1,0.1,0,0.1c0,0-0.1,0.1-0.2,0.3c-0.1,0.2-0.3,0.4-0.5,0.6
								c-0.2,0.2-0.5,0.4-0.7,0.5c-0.1,0.1-0.2,0.1-0.3,0.1c-0.1,0-0.1,0-0.1,0c-0.2,0-0.4-0.1-0.5-0.3c-1-1.4-2.3-2.1-3.7-1.9
								c-1.3,0.1-2.4,0.9-2.9,1.9c-0.1,0.2-0.3,0.3-0.5,0.2C82.1,38.5,82.1,38.3,82.1,38.1z"/>
						</g>
					</g>
				</g>
				<g>
					<path class="st3" d="M82.3,55.5c0,2.9-2.7,5.3-6,5.3s-6-2.4-6-5.3H82.3z"/>
					<path class="st7" d="M80.3,57.5h-8c-0.6,0-1-0.4-1-1v-1h10v1C81.3,57.1,80.8,57.5,80.3,57.5z"/>
				</g>
				<path class="st11" d="M95.7,35.1h-2.6c-1.5-1-4.3-1-6.8-1c-4.2,0-7,0.8-8.4,2.4c-0.5-0.3-1.2-0.3-1.9-0.3
					c-0.8,0-1.5,0.1-1.9,0.3c-1.4-1.6-4.2-2.4-8.4-2.4c-2.5,0-5.3,0-6.8,1h-2.6v2.8l1.1,0.6c0,4.4,2.2,9.6,8.3,9.6
					c5,0,8.1-2.7,9.2-8C75,39.7,75,39.4,75,39c0.1-0.3,0.5-0.6,1-0.6c0.6,0,0.9,0.3,1,0.6c0,0.4,0,0.7,0.1,1.1c1.1,5.3,4.2,8,9.2,8
					c6.1,0,8.2-5.2,8.3-9.6l1.1-0.6V35.1z M73.6,39.9c-1,4.7-3.5,7-7.9,7c-6.6,0-6.9-6.9-6.9-8.3c0-2.1,4.8-2.3,6.9-2.3
					C70.5,36.2,74,37.9,73.6,39.9z M86.3,46.8c-4.3,0-6.9-2.3-7.9-7c-0.4-2,3.1-3.7,7.9-3.7c2.2,0,6.9,0.2,6.9,2.3
					C93.3,39.9,92.9,46.8,86.3,46.8z"/>
				<path class="st4" d="M98.7,23C95.3,9.1,85.5,2.9,76.1,3.1c-9.4-0.2-19.3,6-22.6,19.9c-3,12.2-3.4,23.4,2,41.5
					c8.5-5.6-7.5-49.6,20.6-40.4c28.2-9.3,12.1,34.8,20.6,40.4C102.1,46.4,101.7,35.2,98.7,23z"/>
			</g>
		</g>
		<g id="computer_3_">
			<path class="st12" d="M111.5,148.4H39.9c-0.9,0-1.7-0.8-1.7-1.7c0-0.9,0.8-1.7,1.7-1.7h71.6c0.9,0,1.7,0.8,1.7,1.7
				C113.2,147.6,112.4,148.4,111.5,148.4z"/>
			<path class="st13" d="M108.2,145.1h-65c-2.8,0-5-2.2-5-5V95.7c0-2.8,2.2-5,5-5h65c2.8,0,5,2.2,5,5v44.4
				C113.2,142.9,110.9,145.1,108.2,145.1z"/>
			<circle class="st14" cx="75.7" cy="116.2" r="6.1"/>
			<path class="st15" d="M96.1,90.7H41.3c-1.7,0-3.1,1.4-3.1,3.1V142c0,1.7,1.4,3.1,3.1,3.1h10.8C54.3,119.2,72.2,97.8,96.1,90.7z"
				/>
		</g>
		<g id="table">
			<path class="st16" d="M146.8,157.4H4.5c-2.5,0-4.5-2-4.5-4.5c0-2.5,2-4.5,4.5-4.5h142.3c2.5,0,4.5,2,4.5,4.5
				C151.3,155.4,149.3,157.4,146.8,157.4z"/>
			<path class="st16" d="M14.4,280.6c-2.5,0-4.5-2-4.5-4.5V152.9c0-2.5,2-4.5,4.5-4.5s4.5,2,4.5,4.5v123.2
				C18.9,278.6,16.9,280.6,14.4,280.6z"/>
			<path class="st16" d="M136.9,280.6c-2.5,0-4.5-2-4.5-4.5V152.9c0-2.5,2-4.5,4.5-4.5c2.5,0,4.5,2,4.5,4.5v123.2
				C141.4,278.6,139.4,280.6,136.9,280.6z"/>
		</g>
	</g>
</g>
</svg>
